<svg xmlns="http://www.w3.org/2000/svg" viewBox="0 0 888 600">
  <path fill="#EBCB8B" stroke="#4C566A" stroke-width="4.369" stroke-linecap="round" stroke-linejoin="round" stroke-miterlimit="1.5" d="M384.99 406.207s1.244-22.755 13.208-29.523c11.965-6.768 20.05 1.957 13.533 10.183-6.515 8.227-11.928 16.526-10.467 24.82 1.462 8.298-17.198 8.87-16.274-5.48zm113.603 9.251s12.045-19.346 6.133-31.756c-5.91-12.41-17.536-9.908-16.926.569.613 10.474.28 20.378-5.68 26.332-5.96 5.954 8.99 17.134 16.473 4.855z"/>
  <path fill="#88C0D0" d="M516.773 214.587c.42-2.516 5.565-6.361 7.704-7.232 26.016-10.596 16.896 19.238 1.75 18.057"/>
  <path fill="#4C566A" d="M534.036 202.015h.115l.116.002.114.004.115.003.113.005.113.004.112.006.112.008.111.007.112.009.11.01.111.01.11.012.108.012.109.013.109.014.107.015.107.016.107.016.107.018.105.019.105.019.105.02.105.021.104.021.104.022.104.023.103.024.103.025.103.026.102.028.1.027.102.029.1.029.1.031.1.032.098.032.098.033.098.035.098.035.094.037.098.037.096.039.094.039.094.04.093.041.093.042.092.043.093.045.092.045.089.045.09.047.089.049.088.049.087.049.088.051.086.052.084.052.086.055.084.053.082.055.085.057.081.058.08.058.08.059.08.059.079.061.077.063.077.061.075.063.076.063.073.064.073.064.072.066.072.066.072.07.068.068.068.066.068.07.066.07.066.071.065.072.065.073.063.073.062.073.061.073.061.075.062.078.058.074.055.075.058.078.057.079.054.078.055.08.053.08.051.078.049.078.051.082.049.083.048.083.046.08.045.08.045.084.045.086.043.084.041.083.039.083.039.082.04.087.038.087.037.084.035.084.034.085.035.089.034.088.031.086.031.086.03.086.028.086.029.09.027.09.027.088.024.083.024.087.025.092.023.088.021.088.021.088.021.088.021.092.018.089.019.085.017.094.018.088.014.086.016.093.015.089.013.087.014.089.01.09.013.091.009.093.01.087.009.087.009.094.007.09.006.088.007.09.004.091.004.087.004.092.004.09.002.092.001.087.001.088v.095l-.001.091-.001.087-.002.088-.002.092-.004.088-.003.088-.003.096-.007.088-.005.088-.007.092-.006.091-.009.088-.008.089-.01.092-.008.088-.01.088-.011.089-.011.091-.014.093-.012.089-.012.088-.014.088-.015.09-.015.094-.031.174-.033.178-.034.179-.038.179-.039.176-.042.177-.044.179-.047.178-.047.176-.051.174-.052.178-.054.176-.057.176-.059.174-.061.175-.062.175-.063.174-.066.174-.068.174-.069.172-.071.172-.074.174-.074.17-.076.17-.08.172-.082.17-.082.17-.084.168-.086.168-.09.17-.089.166-.091.166-.094.167-.096.165-.096.164-.1.164-.1.164-.102.163-.104.161-.104.161-.108.161-.107.159-.111.159-.112.158-.113.156-.114.156-.117.155-.118.154-.121.155-.123.152-.123.15-.124.15-.128.15-.128.148-.131.146-.131.146-.133.146-.135.144-.136.143-.138.142-.141.141-.141.14-.144.138-.146.138-.146.135-.146.133-.149.133-.151.131-.147.127-.08.066-.077.064-.078.064-.079.063-.077.063-.078.063-.078.061-.081.063-.081.063-.076.059-.081.061-.083.062-.081.06-.081.059-.082.059-.082.058-.083.059-.085.058-.082.057-.083.057-.085.057-.086.056-.085.054-.085.055-.086.055-.086.055-.086.053-.088.053-.087.053-.089.052-.087.052-.089.051-.09.051-.089.049-.088.049-.091.049-.092.049-.09.048-.09.047-.092.048-.093.046-.091.046-.095.045-.091.044-.094.044-.094.045-.094.042-.094.042-.096.043-.095.041-.095.039-.097.041-.095.039-.098.039-.098.038-.096.038-.098.036-.098.036-.098.036-.1.035-.099.034-.099.034-.1.032-.1.033-.102.031-.1.031-.102.031-.1.029-.102.029-.102.028-.103.028-.103.027-.103.025-.104.026-.103.024-.105.025-.102.023-.105.021-.105.022-.104.021-.104.021-.106.02-.104.02-.106.019-.105.017-.107.018-.106.016-.107.016-.107.014-.106.015-.108.013-.107.012-.108.012-.108.01-.108.01-.109.01-.109.008-.109.007-.109.007-.11.005-.109.005-.11.004-.11.003-.11.003h-.111l-.11.002-.11-.002h-.113l-.11-.003-.112-.003-.111-.004-.113-.005-.11-.005-.113-.008-.112-.006-.101-.008-.171-.018-.169-.027-.169-.037-.165-.045-.161-.055-.161-.064-.153-.073-.152-.081-.146-.09-.141-.099-.135-.105-.129-.112-.123-.121-.117-.127-.106-.133-.102-.139-.093-.145-.084-.149-.076-.153-.068-.158-.057-.162-.051-.164-.039-.166-.03-.17-.021-.17-.011-.172-.003-.172.009-.171.018-.171.027-.17.036-.167.046-.166.055-.162.064-.159.072-.156.082-.15.089-.146.098-.141.106-.135.113-.131.119-.121.127-.116.134-.108.139-.101.146-.093.148-.085.153-.075.158-.068.161-.059.164-.049.168-.039.169-.031.17-.021.172-.01.171-.002.172.008.076.006.065.004.063.004.065.002.063.004.064.002.064.002.063.001.063.001h.127l.064-.001.063-.001.063-.002.063-.002.063-.004.063-.002.063-.004.063-.004.063-.005.063-.005.063-.006.063-.006.062-.007.063-.007.062-.008.062-.007.062-.009.062-.009.062-.009.062-.01.062-.01.062-.012.061-.01.062-.012.062-.012.062-.014.059-.012.063-.014.061-.014.061-.015.061-.015.061-.015.06-.017.061-.016.06-.016.06-.017.061-.018.061-.018.06-.019.06-.019.061-.019.06-.02.061-.02.059-.021.059-.02.059-.021.06-.021.06-.021.059-.022.06-.022.058-.023.059-.023.06-.024.058-.024.06-.025.06-.025.056-.025.06-.025.059-.027.057-.027.059-.026.059-.028.057-.027.059-.029.057-.029.057-.027.058-.031.058-.03.057-.03.057-.03.057-.032.059-.031.055-.031.057-.033.057-.033.057-.033.055-.033.056-.033.057-.035.056-.035.055-.035.057-.035.055-.035.056-.036.054-.036.055-.037.056-.038.054-.037.054-.038.056-.039.053-.037.055-.041.055-.039.053-.038.053-.04.056-.042.052-.04.052-.039.053-.043.055-.043.052-.041.052-.043.052-.041.052-.043.047-.041.106-.091.104-.089.1-.09.101-.092.101-.092.098-.092.098-.096.098-.096.096-.096.096-.098.094-.1.094-.1.092-.1.092-.102.09-.104.09-.102.088-.104.087-.105.087-.107.084-.105.083-.106.083-.108.082-.108.081-.108.08-.111.077-.11.078-.11.076-.111.073-.111.073-.113.074-.113.07-.113.069-.113.069-.113.066-.115.065-.114.063-.114.064-.115.062-.116.061-.114.06-.115.058-.116.057-.116.054-.114.054-.114.052-.117.052-.115.048-.114.049-.114.047-.117.045-.113.042-.113.042-.115.041-.113.039-.113.037-.113.035-.112.035-.11.033-.111.031-.111.03-.111.028-.108.027-.106.025-.108.023-.108.022-.105.021-.105.021-.105.019-.107.006-.045.009-.053.009-.052.007-.052.007-.051.007-.048.006-.048.006-.051.005-.05.006-.05.004-.047.005-.051.005-.049.004-.045.002-.047.004-.049.002-.048.002-.042.002-.047.002-.049.002-.043v-.268l-.002-.043-.001-.041-.001-.041-.002-.045-.003-.04-.003-.04-.003-.043-.003-.04-.004-.036-.003-.043-.005-.041-.004-.035-.004-.037-.006-.037-.004-.037-.006-.041-.006-.036-.006-.032-.007-.04-.007-.035-.007-.032-.007-.037-.008-.034-.007-.03-.007-.033-.01-.033-.008-.033-.008-.033-.008-.027-.008-.032-.012-.034-.01-.031-.008-.027-.009-.027-.009-.029-.012-.029-.01-.029-.012-.029-.008-.025-.012-.025-.01-.027-.013-.027-.011-.027-.012-.023-.01-.023-.013-.025-.013-.027-.012-.025-.012-.021-.012-.021-.012-.021-.014-.025-.014-.023-.012-.021-.012-.021-.014-.021-.015-.023-.015-.022-.013-.021-.014-.019-.013-.02-.014-.019-.015-.02-.015-.021-.017-.021-.013-.016-.016-.019-.017-.021-.015-.018-.017-.02-.016-.018-.015-.018-.018-.018-.018-.018-.017-.018-.019-.019-.018-.017-.018-.016-.018-.018-.018-.017-.02-.017-.02-.018-.02-.016-.02-.018-.021-.016-.02-.018-.021-.015-.021-.017-.021-.016-.022-.018-.024-.016-.021-.016-.024-.016-.025-.016-.022-.016-.027-.016-.026-.016-.025-.016-.027-.015-.027-.016-.028-.015-.027-.015-.031-.017-.03-.014-.028-.016-.033-.014-.031-.016-.034-.014-.034-.016-.033-.014-.035-.014-.035-.014-.036-.014-.038-.014-.036-.014-.039-.014-.041-.014-.038-.012-.041-.014-.043-.012-.042-.012-.044-.013-.044-.012-.044-.012-.047-.011-.047-.012-.047-.012-.05-.01-.048-.01-.051-.01-.051-.01-.051-.01-.054-.01-.055-.008-.054-.008-.056-.009-.056-.008-.058-.007-.058-.008-.06-.006-.061-.006-.062-.006-.062-.006-.062-.004-.063-.004-.065-.004-.064-.004-.066-.003-.068-.003-.068-.002-.068-.001-.07-.001-.071-.001h-.072l-.072.001h-.073l-.075.002-.076.002-.076.003-.077.003-.079.004-.079.005-.08.005-.082.006-.082.006-.084.007-.082.007-.086.008-.086.01-.086.008-.089.01-.088.012-.091.011-.09.012-.092.013-.092.014-.094.014-.095.014-.095.016-.097.016-.097.018-.098.016-.099.02-.101.018-.1.021-.104.021-.102.021-.104.021-.104.022-.104.023-.107.023-.105.024-.109.026-.108.025-.11.027-.11.027-.111.029-.112.029-.114.029-.114.031-.116.031-.115.033-.117.033-.118.034-.119.035-.119.035-.121.037-.122.038-.123.038-.123.038-.124.041-.125.041-.127.041-.127.043-.129.043-.128.044-.13.046-.131.045-.133.047-.131.049-.135.049-.133.049-.136.051-.136.051-.138.053-.138.053-.139.055-.141.055-.141.057-.141.057-.137.056-.027.011-.023.01-.025.012-.028.012-.031.015-.034.016-.033.017-.037.018-.039.02-.041.021-.043.021-.038.021-.097.052-.098.053-.102.059-.107.063-.111.066-.115.068-.117.073-.121.076-.123.079-.127.084-.129.086-.129.088-.133.09-.133.094-.134.096-.135.098-.136.101-.136.102-.136.104-.137.104-.137.106-.135.109-.134.108-.135.11-.133.111-.13.112-.133.114-.061.055-.064.057-.063.057-.063.057-.06.057-.062.057-.062.058-.061.056-.059.057-.06.057-.059.058-.056.056-.056.055-.057.057-.055.056-.053.055-.055.056-.052.055-.05.055-.051.055-.047.051-.049.055-.047.053-.047.053-.045.051-.042.051-.042.051-.041.049-.039.048-.039.048-.037.049-.035.047-.033.044-.033.046-.032.043-.028.041-.031.043-.025.039-.025.037-.024.037-.021.035-.021.033-.021.035-.017.029-.018.029-.015.026-.012.023-.013.024-.009.02-.008.016-.007.018-.005.012-.004.008-.03.145-.044.166-.054.162-.063.16-.07.156-.08.152-.09.146-.096.143-.104.137-.113.13-.117.124-.127.117-.132.109-.138.102-.145.094-.148.086-.152.078-.158.068-.16.061-.164.051-.167.041-.167.033-.172.021-.17.014-.172.003-.172-.006-.172-.017-.168-.025-.169-.034-.165-.044-.163-.055-.161-.063-.156-.07-.15-.08-.147-.089-.143-.097-.136-.104-.131-.113-.124-.118-.116-.126-.111-.132-.1-.138-.095-.144-.086-.149-.078-.152-.069-.157-.059-.161-.053-.164-.041-.166-.031-.169-.021-.17-.014-.171-.004-.172.006-.172.016-.171.025-.169.02-.105.029-.139.029-.129.035-.135.037-.131.037-.121.041-.123.045-.125.045-.117.046-.115.048-.114.051-.11.051-.113.054-.107.053-.105.056-.107.057-.104.057-.104.059-.102.059-.098.061-.099.063-.099.061-.096.065-.098.063-.095.064-.091.066-.094.068-.094.065-.09.069-.092.07-.09.068-.088.069-.088.073-.089.071-.088.071-.085.074-.088.074-.086.074-.084.074-.084.076-.084.077-.086.077-.082.076-.082.078-.082.078-.082.08-.082.079-.08.08-.08.081-.08.082-.08.079-.078.082-.078.082-.08.083-.077.082-.077.084-.076.084-.078.083-.076.085-.074.084-.075.087-.077.169-.146.172-.146.17-.145.173-.142.174-.141.174-.14.174-.136.173-.135.174-.132.174-.131.174-.127.173-.125.173-.124.172-.12.171-.119.171-.115.17-.113.167-.109.168-.108.166-.105.164-.102.164-.1.164-.097.161-.094.158-.09.16-.088.154-.082.083-.045.078-.039.078-.041.08-.039.077-.037.08-.039.078-.037.078-.035.08-.035.079-.035.081-.035.074-.031.167-.066.161-.065.16-.063.16-.063.159-.063.157-.061.157-.06.156-.06.156-.058.155-.058.156-.057.153-.056.153-.055.152-.054.152-.053.151-.052.151-.052.148-.049.15-.05.148-.049.148-.048.146-.047.147-.046.146-.044.146-.045.145-.043.144-.043.144-.041.144-.041.142-.039.142-.039.142-.039.141-.037.139-.035.141-.037.139-.033.138-.035.137-.033.138-.031.136-.031.136-.031.135-.029.135-.029.134-.027.134-.027.133-.027.132-.025.132-.023.131-.025.131-.021.13-.023.129-.021.129-.02.13-.021.127-.019.127-.019.127-.018.126-.017.126-.016.124-.015.125-.015.123-.012.124-.014.123-.011.122-.011.123-.01.121-.01.122-.008.119-.008.12-.006.12-.006.119-.006.118-.004.118-.003.118-.003.117-.002h.223z"/>
  <path fill="#88C0D0" d="M375.821 194.989c-2.389.894-4.962-.61-6.785-2.027-22.185-17.232 8.134-24.135 14.684-10.428"/>
  <path fill="#4C566A" d="M370.848 172.202l.19.002.191.004.191.006.192.008.191.01.192.011.192.013.192.016.191.016.193.021.192.021.192.021.193.023.193.027.192.027.192.03.192.032.193.033.193.037.191.037.192.039.192.041.192.043.191.047.192.047.19.049.191.051.191.055.19.055.19.057.189.06.19.062.189.064.188.064.188.068.183.067.098.037.094.036.093.037.092.035.094.039.093.038.092.038.093.04.092.04.092.04.091.04.093.042.091.042.091.042.091.044.092.044.09.044.09.044.092.046.089.045.091.047.089.047.089.047.091.049.088.049.088.049.09.05.089.05.088.051.087.051.089.053.087.053.086.052.088.054.088.055.087.057.084.054.086.056.086.057.086.058.084.058.086.059.084.059.083.059.085.061.083.062.083.061.083.062.083.063.083.064.081.063.082.064.082.065.081.065.081.066.079.064.08.068.08.068.079.068.079.068.078.07.079.07.077.072.077.07.076.072.076.071.076.074.076.075.074.074.074.073.074.077.074.077.072.076.073.077.072.078.07.078.072.08.072.082.07.08.068.081.069.081.069.083.069.085.067.082.067.085.066.085.066.086.065.085.064.087.065.088.064.088.064.09.062.089.061.089.063.093.06.089.06.092.06.093.058.091.06.096.058.094.057.096.056.094.056.096.056.098.055.098.053.097.053.097.052.098.052.1.052.102.051.102.049.1.043.09.068.151.06.155.051.156.043.16.033.162.025.164.016.164.008.166-.001.167-.011.165-.02.164-.029.163-.037.162-.046.159-.055.156-.063.153-.071.149-.079.146-.087.141-.094.137-.102.131-.109.124-.115.12-.122.112-.127.106-.133.099-.138.093-.142.083-.148.075-.15.068-.155.061-.158.051-.16.043-.162.033-.164.025-.165.018-.166.006-.166-.002-.166-.01-.164-.02-.164-.029-.162-.037-.159-.045-.156-.055-.154-.063-.15-.071-.146-.078-.141-.088-.136-.094-.131-.103-.125-.108-.119-.115-.113-.121-.105-.127-.099-.133-.092-.139-.084-.143-.076-.147-.035-.071-.028-.059-.029-.058-.029-.057-.029-.056-.03-.059-.031-.057-.031-.057-.031-.057-.031-.053-.032-.055-.033-.056-.033-.056-.033-.053-.033-.053-.035-.055-.034-.053-.034-.051-.036-.055-.034-.051-.037-.053-.036-.051-.036-.051-.036-.049-.037-.051-.038-.051-.038-.051-.039-.049-.038-.049-.039-.049-.04-.049-.039-.047-.04-.049-.04-.047-.042-.049-.041-.047-.04-.045-.042-.047-.043-.047-.042-.046-.042-.046-.043-.045-.042-.044-.043-.044-.045-.046-.044-.045-.044-.043-.044-.042-.045-.044-.046-.044-.046-.043-.046-.042-.045-.041-.048-.042-.047-.043-.048-.04-.047-.041-.048-.04-.05-.043-.048-.038-.049-.04-.049-.039-.05-.039-.05-.039-.05-.039-.05-.038-.052-.038-.052-.039-.051-.037-.051-.037-.053-.036-.053-.038-.052-.035-.053-.035-.054-.037-.054-.035-.053-.035-.056-.035-.054-.035-.054-.033-.056-.034-.056-.034-.055-.033-.056-.032-.057-.034-.057-.033-.056-.031-.056-.031-.058-.031-.058-.032-.057-.03-.059-.031-.059-.03-.058-.029-.06-.031-.058-.028-.059-.029-.061-.03-.058-.027-.06-.028-.062-.029-.06-.026-.06-.027-.062-.026-.061-.027-.062-.027-.061-.025-.062-.025-.063-.025-.062-.025-.063-.025-.063-.023-.062-.025-.059-.021-.131-.049-.127-.045-.128-.045-.127-.043-.129-.041-.13-.041-.129-.04-.13-.038-.131-.036-.131-.034-.132-.035-.133-.033-.132-.031-.133-.029-.133-.029-.134-.027-.133-.025-.134-.025-.134-.023-.135-.022-.134-.021-.134-.02-.135-.019-.134-.017-.135-.016-.135-.015-.134-.013-.135-.012-.133-.011-.134-.009-.134-.008-.133-.007-.134-.006-.132-.003-.133-.003-.132-.002-.132-.001-.132.001-.13.003-.13.003-.13.005-.129.006-.128.008-.128.008-.127.01-.126.012-.126.012-.125.014-.124.014-.123.016-.122.018-.121.018-.12.018-.12.021-.118.022-.117.021-.115.023-.115.025-.113.024-.112.026-.111.027-.109.028-.108.03-.107.03-.105.032-.104.031-.103.033-.102.033-.099.035-.104.037-.043.018-.048.018-.047.019-.047.019-.047.02-.046.018-.047.021-.044.019-.044.02-.045.02-.044.02-.045.021-.042.02-.042.021-.043.02-.041.021-.042.02-.041.021-.04.021-.04.02-.042.023-.039.021-.038.022-.038.02-.037.022-.038.022-.037.021-.036.021-.037.023-.036.022-.033.021-.035.022-.034.023-.033.021-.033.023-.033.023-.031.021-.03.022-.034.023-.029.023-.029.021-.03.023-.028.021-.029.024-.029.023-.027.022-.024.021-.026.023-.028.023-.025.021-.025.023-.024.023-.024.023-.024.023-.021.021-.023.022-.024.025-.021.021-.02.021-.021.023-.021.023-.02.021-.018.021-.02.023-.02.023-.018.021-.016.02-.019.024-.018.024-.015.02-.016.021-.018.024-.014.019-.015.023-.017.025-.013.02-.012.02-.016.023-.013.023-.01.018-.013.022-.013.022-.013.024-.011.021-.011.02-.012.023-.01.021-.01.021-.009.021-.011.025-.009.021-.007.019-.009.022-.01.024-.008.022-.007.02-.008.022-.007.024-.008.022-.007.023-.006.022-.006.021-.007.024-.006.025-.005.021-.005.023-.006.025-.005.023-.005.023-.004.027-.003.022-.004.024-.004.029-.003.025-.003.027-.003.025-.002.025-.002.027-.002.029-.001.026-.002.032-.001.027v.149l.001.034.002.031.001.032.002.033.003.033.003.037.003.034.004.032.004.036.005.036.006.041.005.035.006.035.007.043.007.038.007.038.009.044.008.04.009.041.011.043.011.042.011.042.012.043.013.047.013.045.014.046.015.048.015.047.017.049.015.047.018.049.018.049.018.049.02.051.021.053.022.053.021.051.022.053.024.055.025.056.025.056.025.055.026.053.028.059.028.057.029.058.03.06.03.058.032.06.033.062.034.062.033.059.036.063.037.063.037.064.037.061.039.064.041.066.04.063.042.065.043.066.043.066.044.066.045.067.046.067.048.069.049.07.049.069.05.069.052.07.052.07.054.072.055.073.055.071.057.073.058.074.058.072.06.075.061.075.062.074.063.074.064.078.066.077.065.076.067.077.069.078.069.078.072.079.072.079.072.079.074.081.075.08.075.08.079.082.078.081.079.082.082.083.082.082.083.084.083.082.086.085.086.085.087.085.088.085.09.085.091.087.092.086.094.086.095.088.095.087.097.088.099.089.099.088.1.088.102.09.104.09.104.09.105.09.107.091.108.091.108.091.109.091.112.094.113.092.114.093.115.093.117.092.117.094.118.094.121.095.12.094.073.058.074.056.075.056.075.057.075.055.075.055.075.054.077.054.076.053.076.053.077.052.077.05.077.051.077.049.077.049.076.047.077.046.078.046.076.045.075.041.077.043.075.041.073.037.076.039.074.037.073.034.073.034.071.031.072.031.069.029.069.027.068.027.072.026.027.01.033.012.032.011.032.01.031.011.032.009.031.01.031.01.031.008.03.008.029.01.03.008.029.006.028.008.028.006.027.006.028.005.027.006.027.005.026.004.025.006.025.003.025.005.024.002.024.002.024.004.024.002.021.002.023.002.022.002h.021l.021.002.021.001.021.001h.04l.019-.001.019-.001h.019l.018-.002h.019l.017-.002.018-.002.018-.002h.017l.017-.004.017-.002.016-.002.016-.004.017-.002.015-.004.015-.003.015-.003.016-.004.016-.005.015-.004.014-.005.016-.004.017-.004.013-.006.015-.005.037-.013.156-.054.16-.044.162-.035.164-.027.164-.018.166-.01.166.001.166.009.165.019.164.026.161.035.161.046.157.053.154.062.15.068.146.079.142.085.137.094.131.1.126.107.12.114.114.12.107.127.101.132.093.138.085.141.077.146.07.151.061.153.053.158.044.16.036.161.026.163.019.165.009.165v.166l-.01.166-.018.165-.027.163-.036.162-.044.158-.053.158-.062.153-.07.151-.078.146-.085.142-.093.138-.1.131-.108.127-.113.12-.121.114-.126.105-.132.102-.138.092-.141.086-.146.078-.151.068-.154.063-.075.027-.097.034-.099.032-.097.031-.096.029-.099.029-.099.025-.097.025-.097.023-.098.023-.098.021-.098.018-.097.02-.097.018-.098.014-.097.014-.097.014-.097.012-.096.01-.096.009-.096.008-.096.005-.096.006-.094.004-.095.002-.095.002-.094.002-.094-.002-.093-.002-.093-.002-.093-.006-.091-.004-.092-.008-.091-.006-.09-.008-.09-.01-.089-.01-.09-.012-.088-.011-.088-.014-.088-.013-.088-.016-.086-.016-.086-.016-.085-.018-.084-.016-.085-.02-.084-.018-.084-.021-.083-.021-.082-.02-.083-.021-.082-.023-.08-.021-.082-.025-.081-.023-.08-.025-.08-.025-.079-.025-.077-.026-.078-.027-.082-.029-.147-.054-.151-.059-.149-.06-.147-.063-.145-.062-.144-.066-.142-.064-.14-.067-.138-.069-.136-.068-.135-.071-.134-.072-.131-.071-.129-.073-.129-.075-.125-.074-.125-.075-.124-.076-.122-.076-.119-.076-.119-.077-.117-.078-.115-.076-.114-.078-.112-.078-.11-.078-.109-.078-.107-.078-.104-.076-.104-.078-.102-.077-.101-.077-.099-.076-.138-.107-.135-.105-.137-.109-.133-.105-.133-.107-.132-.105-.131-.107-.129-.105-.127-.105-.128-.106-.126-.106-.125-.104-.124-.105-.124-.106-.121-.104-.121-.104-.119-.105-.119-.104-.118-.105-.116-.104-.115-.104-.115-.104-.112-.103-.113-.105-.111-.104-.109-.104-.108-.104-.109-.104-.107-.104-.105-.104-.104-.102-.104-.104-.103-.104-.101-.104-.099-.101-.1-.104-.099-.103-.096-.101-.098-.104-.095-.102-.094-.102-.094-.104-.092-.102-.091-.1-.091-.104-.089-.102-.088-.102-.087-.102-.086-.102-.085-.101-.084-.102-.083-.101-.082-.102-.081-.1-.082-.103-.079-.101-.078-.102-.078-.101-.076-.1-.075-.101-.076-.102-.073-.1-.073-.102-.072-.102-.069-.099-.07-.101-.069-.101-.067-.1-.068-.103-.065-.1-.065-.1-.064-.101-.064-.102-.061-.1-.061-.1-.061-.101-.059-.1-.058-.1-.057-.102-.057-.101-.055-.101-.053-.099-.053-.101-.053-.102-.051-.1-.05-.1-.05-.102-.047-.1-.049-.103-.047-.101-.045-.1-.044-.1-.043-.1-.042-.102-.043-.103-.04-.1-.039-.1-.039-.101-.038-.103-.037-.101-.036-.101-.036-.104-.032-.099-.033-.101-.032-.102-.03-.101-.03-.103-.027-.099-.027-.102-.026-.102-.026-.103-.024-.101-.023-.102-.022-.104-.02-.096-.021-.104-.02-.103-.017-.098-.017-.104-.017-.104-.014-.099-.013-.1-.012-.101-.012-.104-.01-.102-.009-.098-.008-.102-.007-.102-.005-.102-.004-.102-.003-.099-.002-.103-.001-.102v-.098l.001-.1.002-.102.004-.102.004-.096.006-.102.007-.098.007-.1.01-.102.011-.098.011-.099.013-.098.014-.095.015-.098.016-.102.018-.094.018-.098.02-.097.021-.093.022-.098.023-.096.023-.093.025-.093.026-.096.028-.096.028-.091.03-.091.03-.092.031-.09.034-.094.034-.09.033-.088.036-.088.038-.092.038-.09.037-.084.04-.088.041-.086.042-.088.041-.083.044-.085.045-.085.044-.082.045-.081.046-.08.05-.087.048-.079.048-.076.051-.082.052-.08.05-.076.052-.076.055-.078.052-.074.055-.076.058-.076.055-.072.056-.07.06-.074.058-.073.058-.069.059-.068.061-.07.062-.07.061-.067.062-.066.063-.068.064-.067.062-.063.063-.064.066-.065.065-.063.066-.063.066-.062.067-.062.067-.061.067-.059.068-.059.071-.061.069-.059.069-.056.07-.056.071-.057.07-.055.072-.055.072-.056.07-.052.074-.053.074-.053.073-.051.073-.051.074-.051.075-.049.075-.049.078-.049.076-.049.074-.046.078-.046.077-.047.076-.045.078-.045.079-.045.079-.043.079-.043.077-.041.08-.043.08-.041.079-.041.08-.039.082-.041.08-.039.081-.038.083-.038.081-.037.081-.037.082-.036.082-.036.084-.035.083-.034.083-.034.083-.034.083-.032.083-.033.084-.033.09-.033.164-.061.17-.059.171-.057.172-.057.173-.053.174-.052.175-.05.175-.049.178-.045.177-.044.178-.042.179-.04.18-.038.18-.037.181-.035.181-.032.183-.03.183-.029.184-.026.184-.025.184-.024.186-.021.186-.02.186-.019.187-.016.188-.016.188-.012.188-.01.188-.01.19-.006.188-.006.19-.002.19-.003.193.059z"/>
  <path fill="#88C0D0" d="M377.257 376.312s-11.53-22.668-9.351-42.113c6.82-60.871-11.098-72.814-4.093-109.944 2.432-12.894 7.03-27.577 14.861-38.253 17.209-23.457 50.287-35.643 79.059-30.133 11.52 2.207 21.922 7.193 32.216 12.663 35.817 19.026 43.26 59.185 38.604 93.03-2.06 14.984-14.941 38.336-13.059 53.359 3.93 31.322 2.83 48.275-6.948 68.479-8.333 17.219-40.771 30.191-76.231 26.504-6.041-.63-42.193-6.964-55.058-33.592z"/>
  <path fill="none" d="M377.257 376.312s-11.53-22.668-9.351-42.113c6.82-60.871-11.098-72.814-4.093-109.944 2.432-12.894 7.03-27.577 14.861-38.253 17.209-23.457 50.287-35.643 79.059-30.133 11.52 2.207 21.922 7.193 32.216 12.663 35.817 19.026 43.26 59.185 38.604 93.03-2.06 14.984-14.941 38.336-13.059 53.359 3.93 31.322 2.83 48.275-6.948 68.479-8.333 17.219-40.771 30.191-76.231 26.504-6.041-.63-42.193-6.964-55.058-33.592z"/>
  <g opacity=".35" fill="#81A1C1">
    <path d="M505.276 183.273s12.2 15.68 8.9 40.043c-4.957 36.598-20.338 28.746-19.292 94.61.522 32.833 2.48 52.634-11.978 72.399-14.042 19.195-54.197 19.166-64.349 16.265-10.152-2.899 40.025 10.443 68.736-1.158s32.773-60.326 29.003-90.779c-3.77-30.453 20.59-39.153 12.47-91.647-13.048-30.746-13.339-29.004-23.49-39.733z"/>
    <path d="M457.377 228.284s3.563 17.818 24.8 16.779c21.235-1.04 22.72-22.718 22.72-22.718l-47.52 5.939zm-90.824-9.06s3.564 17.82 24.799 16.78c21.234-1.038 22.718-22.719 22.718-22.719l-47.517 5.94z"/>
  </g>
  <path fill="#4C566A" d="M444.021 151.497l.36.002.36.006.359.005.362.007.36.01.358.01.36.012.36.014.36.016.358.017.36.018.358.021.36.021.358.023.359.025.357.027.358.028.358.028.359.031.356.035.358.033.356.037.356.038.357.04.355.041.357.042.357.046.354.047.354.048.357.048.354.053.353.053.355.054.355.058.352.059.354.059.354.063.354.063.352.064.352.066.281.055.281.055.281.058.279.057.279.06.28.061.278.061.278.061.278.063.276.064.276.064.278.065.274.065.277.068.273.07.275.066.274.072.272.07.273.072.274.072.271.075.272.075.271.074.271.078.271.078.271.078.27.078.27.08.27.08.27.082.268.084.268.082.268.086.268.084.267.088.267.085.266.087.266.09.266.087.264.091.266.09.264.092.263.092.265.093.264.095.262.092.262.098.262.094.262.096.262.1.261.098.26.098.261.098.26.1.259.101.259.102.261.103.259.101.257.104.257.103.258.104.258.104.256.105.257.105.257.107.256.107.256.105.256.109.255.109.255.109.253.109.255.111.254.11.253.11.253.112.254.112.253.113.253.113.252.114.252.114.252.114.252.116.25.115.252.115.251.117.249.117.252.117.25.119.249.117.251.119.497.239.497.239.496.242.497.242.494.244.495.246.493.246.492.25.492.248.492.252.491.251.49.251.488.254.488.256.489.254.487.257.488.255.484.26.489.258.216.115.218.117.216.117.217.117.215.119.214.117.216.119.212.121.212.119.213.119.212.122.21.123.211.121.209.123.208.123.21.125.206.123.207.124.207.125.205.127.205.127.203.127.205.127.202.126.201.128.203.129.199.131.202.128.2.13.197.131.199.131.198.133.196.132.196.132.196.132.195.134.195.135.192.133.194.135.192.137.191.135.192.136.191.138.188.135.19.141.189.137.188.137.188.14.187.14.188.141.186.139.186.141.185.141.183.141.185.144.182.143.182.144.182.144.18.144.181.144.181.145.178.146.179.145.178.146.177.146.177.146.175.146.175.148.175.147.175.147.173.15.174.15.17.148.172.148.171.152.169.151.17.149.17.152.169.152.166.152.167.152.166.154.166.153.166.155.164.152.164.158.164.154.162.156.162.154.161.156.162.158.161.156.158.159.16.157.157.158.159.159.156.159.158.16.156.16.154.16.156.16.153.161.153.162.152.163.154.16.151.164.149.162.152.164.149.162.15.166.149.164.148.164.146.166.148.164.146.166.146.168.145.166.145.166.145.168.145.168.143.168.141.168.143.167.143.172.14.167.141.17.14.171.139.169.137.172.139.172.137.17.138.174.136.171.135.171.137.176.133.17.134.174.132.175.135.175.129.173.133.175.13.175.13.177.131.174.128.176.128.176.129.177.127.177.126.178.128.178.124.178.127.178.124.179.123.179.123.178.123.182.122.178.121.18.121.18.122.181.119.183.119.18.117.182.119.182.118.18.116.183.117.184.117.183.115.184.114.184.114.182.113.186.115.184.11.184.112.184.112.186.11.186.111.186.109.186.109.188.109.186.107.186.107.188.107.188.107.186.106.188.104.188.104.189.105.188.104.188.102.189.104.188.104.189.1.189.103.188.101.19.101.189.1.191.101.191.098.189.096.193.099.19.097.19.098.193.097.191.095.191.094.193.095.192.095.192.092.194.094.192.093.195.091.193.091.193.091.194.092.194.088.193.09.197.089.195.088.195.087.194.088.196.086.195.087.197.085.195.084.197.086.197.084.195.084.197.082.197.082.199.084.197.08.198.08.197.082.198.078.197.08.199.078.199.079.199.079.199.076.199.078.199.077.199.075.201.074.199.075.201.075.2.072.2.076.201.072.201.071.201.073.201.071.201.071.201.07.201.07.203.07.202.068.201.068.203.068.202.068.203.066.203.066.203.066.203.065.203.066.203.063.204.064.203.064.205.063.204.064.203.063.205.061.203.063.205.061.207.061.203.061.205.059.205.059.205.06.205.059.207.058.205.057.205.057.207.058.205.055.205.056.209.055.205.054.207.056.205.054.208.054.206.052.207.054.208.051.206.05.207.052.207.051.209.049.209.051.208.098.413.097.418.093.416.093.417.091.417.089.418.087.418.084.418.084.42.082.419.08.419.079.419.077.421.074.42.073.42.071.422.071.42.067.423.066.421.064.421.064.423.061.423.061.423.059.422.056.424.056.422.053.423.053.425.049.422.049.425.048.423.044.424.045.425.041.423.041.424.039.425.037.425.036.424.034.423.034.427.03.422.029.426.029.424.027.425.024.425.023.424.022.424.02.424.02.426.019.424.016.424.017.424.012.424.013.426.011.422.01.424.007.426.005.422.006.424.003.422.002.424v.846l-.002.422-.005.422-.004.422-.007.422-.007.42-.01.424-.01.42-.013.422-.013.42-.015.42-.016.418-.019.422-.018.42-.02.418-.021.42-.023.418-.022.418-.025.418-.026.416-.027.418-.029.416-.029.416-.031.416-.033.416-.033.414-.036.416-.036.412-.037.414-.039.414-.039.412-.041.412-.043.412-.045.412-.044.41-.045.41-.048.41-.048.408-.051.41-.05.406-.051.408-.054.408-.054.406-.056.406-.026.189-.027.191-.029.193-.029.191-.032.191-.03.193-.031.193-.035.195-.035.195-.034.195-.037.193-.038.195-.037.197-.039.197-.039.195-.041.199-.041.199-.043.197-.043.201-.045.197-.044.199-.045.201-.046.201-.049.203-.047.199-.049.201-.051.203-.049.203-.051.201-.051.205-.053.205-.053.205-.054.205-.054.205-.055.207-.056.207-.056.205-.057.207-.058.207-.059.207-.059.207-.06.211-.119.416-.123.42-.123.422-.128.422-.128.424-.131.426-.133.426-.133.428-.136.428-.14.43-.139.432-.139.432-.143.436-.145.434-.145.436-.145.436-.148.438-.148.439-.146.439-.152.438-.15.443-.151.439-.153.443-.305.885-.309.887-.621 1.781-.31.891-.311.893-.309.893-.309.895-.153.443-.152.447-.15.447-.152.443-.15.445-.148.443-.148.445-.146.443-.146.445-.146.441-.143.443-.143.439-.141.441-.139.439-.138.439-.138.439-.134.436-.134.438-.13.434-.13.436-.127.432-.125.432-.123.43-.061.215-.059.215-.061.213-.059.215-.06.213-.057.211-.058.213-.057.211-.055.213-.057.213-.055.211-.053.209-.055.209-.051.211-.054.211-.052.205-.051.211-.049.207-.051.207-.047.205-.049.207-.047.207-.046.205-.045.203-.046.205-.043.203-.045.205-.043.201-.041.203-.041.201-.039.201-.041.199-.037.201-.037.197-.038.199-.036.197-.035.199-.034.195-.033.197-.032.193-.032.197-.03.193-.031.193-.027.193-.029.191-.026.191-.026.189-.025.189-.025.191-.022.189-.023.188-.021.186-.02.186-.02.188-.021.186-.018.184-.016.182-.016.182-.015.182-.015.18-.012.18-.013.182-.009.176-.012.178-.008.178-.008.176-.007.174-.005.172-.004.174-.004.172-.002.172-.002.17v.338l.004.166.002.168.006.164.005.164.005.164.008.162.009.162.009.16.011.158.013.158.012.158.016.156.016.154.016.156.018.152.018.16.092.729.091.73.087.727.086.721.086.717.082.711.08.707.078.703.077.697.075.691.072.688.071.684.068.68.067.674.064.672.064.664.061.662.059.658.057.652.057.648.051.646.052.641.048.637.047.633.023.316.021.313.021.313.021.314.02.311.02.309.02.311.02.309.018.309.018.305.017.307.018.305.017.305.014.303.016.303.015.301.015.301.012.299.014.299.012.297.012.299.012.297.011.295.009.295.01.293.01.293.008.293.008.291.008.291.005.289.005.289.008.289.004.287.005.287.004.287.003.283.002.285.002.283.002.285v1.124l-.002.279-.004.279-.002.277-.003.277-.003.277-.006.277-.006.273-.006.275-.005.275-.007.273-.009.271-.007.273-.01.271-.009.271-.011.27-.01.271-.012.27-.012.268-.013.268-.015.268-.012.268-.015.268-.017.266-.016.266-.016.264-.017.264-.018.266-.019.264-.02.262-.02.262-.02.262-.021.262-.021.26-.021.26-.022.26-.023.26-.022.258-.025.26-.027.256-.024.258-.026.258-.027.256-.028.256-.028.256-.029.256-.03.254-.03.252-.031.256-.033.254-.031.252-.034.252-.034.252-.033.252-.036.252-.036.252-.037.25-.037.25-.038.25-.039.25-.038.248-.04.25-.041.248-.042.248-.041.248-.044.248-.044.246-.045.248-.045.246-.045.246-.046.246-.048.246-.047.244-.05.246-.048.244-.05.244-.05.244-.052.244-.052.244-.054.244-.054.242-.054.244-.055.242-.056.244-.055.24-.059.244-.059.242-.059.24-.059.242-.059.242-.061.24-.063.24-.061.242-.063.24-.064.24-.064.24-.064.24-.064.24-.066.24-.068.238-.067.24-.069.238-.068.24-.07.24-.07.238-.071.238-.073.238-.072.24-.074.238-.074.238-.075.238-.077.238-.076.238-.077.238-.079.238-.078.238-.08.238-.08.238-.08.238-.082.236-.084.238-.082.238-.086.238-.084.238-.085.238-.087.238-.088.236-.088.238-.088.238-.09.238-.09.238-.09.238-.094.236-.091.238-.095.238-.094.238-.093.238-.097.238-.096.238-.099.24-.097.238-.098.236-.1.24-.1.24-.103.238-.101.238-.103.24-.103.238-.104.24-.104.24-.105.24-.107.238-.106.24-.107.24-.108.242-.111.24-.108.24-.11.24-.112.242-.112.242-.114.24-.114.242-.113.242-.117.242-.115.242-.118.246-.055.111-.056.113-.057.115-.06.113-.056.111-.059.113-.061.113-.059.113-.061.113-.061.113-.061.111-.063.111-.063.111-.063.111-.064.113-.064.111-.063.109-.066.111-.065.111-.066.111-.068.109-.065.109-.069.111-.068.109-.068.109-.07.109-.07.109-.07.109-.071.109-.071.107-.074.109-.072.109-.074.105-.072.107-.076.109-.075.107-.075.107-.076.107-.077.105-.077.107-.078.107-.076.105-.078.105-.081.107-.08.105-.08.105-.081.105-.082.105-.082.105-.082.104-.082.105-.085.105-.082.102-.084.105-.085.104-.086.104-.086.104-.088.104-.085.102-.087.104-.09.104-.087.104-.09.102-.089.102-.091.102-.089.102-.092.102-.091.102-.093.102-.092.102-.092.1-.095.1-.095.102-.094.102-.189.197-.191.199-.193.197-.196.197-.196.197-.199.195-.202.195-.202.193-.205.193-.206.193-.209.191-.21.189-.213.191-.214.189-.216.188-.217.188-.219.188-.221.186-.223.186-.225.184-.227.184-.229.184-.229.182-.232.18-.232.182-.234.178-.236.18-.238.178-.24.176-.241.178-.242.174-.245.176-.247.174-.248.172-.249.172-.25.172-.254.17-.255.168-.255.17-.258.168-.259.166-.263.166-.262.164-.263.164-.266.164-.268.162-.269.162-.27.16-.271.16-.272.16-.274.156-.277.158-.278.156-.278.156-.281.154-.281.152-.284.152-.283.152-.287.15-.288.15-.289.148-.29.148-.292.148-.295.146-.294.145-.296.145-.299.145-.299.143-.3.141-.304.141-.303.141-.303.139-.307.139-.307.137-.31.137-.31.135-.311.133-.314.133-.313.133-.313.131-.318.131-.317.129-.318.129-.319.127-.323.127-.323.125-.322.123-.326.125-.326.121-.328.121-.328.121-.33.119-.332.117-.334.117-.333.117-.335.115-.336.113-.336.113-.34.111-.34.111-.34.109-.342.109-.344.107-.346.107-.344.105-.348.105-.346.104-.35.102-.35.102-.352.1-.352.1-.353.098-.354.098-.355.096-.357.096-.355.094-.359.092-.358.092-.36.09-.361.09-.363.088-.363.086-.363.086-.365.086-.366.084-.367.082-.369.08-.37.08-.371.08-.37.076-.371.078-.372.074-.375.074-.375.074-.376.07-.376.072-.379.068-.377.068-.381.066-.379.066-.382.064-.382.064-.382.061-.386.063-.383.059-.386.059-.387.059-.386.055-.389.055-.389.055-.389.051-.391.051-.391.051-.393.049-.392.047-.393.047-.395.043-.394.045-.396.041-.396.041-.397.039-.398.039-.397.037-.399.035-.399.033-.399.033-.402.031-.402.031-.4.029-.404.027-.402.025-.405.025-.405.023-.406.021-.404.021-.408.02-.407.018-.408.018-.409.014-.408.016-.41.012-.41.012-.412.01-.41.008-.411.008-.415.004-.413.004-.412.004h-1.245l-.415-.004-.416-.004-.417-.006-.417-.008-.417-.008-.417-.012-.419-.012-.419-.012-.419-.016-.419-.016-.421-.018-.421-.02-.42-.021-.421-.021-.422-.023-.421-.025-.423-.027-.424-.027-.422-.029-.423-.031-.424-.033-.425-.033-.424-.037-.427-.037-.424-.039-.426-.041-.427-.041-.428-.043-.164-.018-.175-.021-.186-.021-.194-.023-.205-.027-.214-.029-.223-.029-.234-.035-.244-.035-.251-.039-.26-.041-.271-.043-.28-.047-.289-.047-.297-.053-.306-.055-.315-.057-.323-.061-.332-.063-.339-.064-.348-.07-.355-.07-.364-.076-.369-.076-.378-.082-.386-.084-.392-.088-.399-.092-.407-.094-.412-.096-.21-.051-.211-.051-.212-.053-.214-.053-.215-.053-.216-.055-.217-.055-.221-.057-.221-.057-.223-.059-.225-.059-.225-.061-.229-.061-.228-.061-.23-.063-.232-.064-.232-.064-.233-.064-.236-.068-.237-.066-.237-.068-.239-.068-.24-.07-.241-.072-.243-.072-.245-.074-.244-.072-.246-.076-.248-.076-.248-.078-.25-.078-.251-.078-.251-.08-.251-.082-.255-.082-.254-.084-.256-.086-.255-.084-.259-.088-.258-.088-.258-.088-.261-.09-.26-.092-.262-.092-.262-.094-.264-.094-.264-.096-.266-.098-.266-.098-.266-.098-.267-.102-.268-.102-.267-.102-.27-.104-.271-.105-.27-.105-.271-.105-.271-.109-.273-.109-.273-.109-.272-.113-.275-.113-.273-.113-.275-.115-.276-.117-.275-.117-.276-.119-.276-.121-.277-.121-.276-.123-.278-.125-.278-.125-.276-.127-.278-.129-.278-.129-.28-.131-.278-.131-.28-.133-.278-.135-.28-.137-.28-.137-.279-.139-.28-.139-.28-.143-.28-.143-.28-.143-.28-.146-.28-.146-.28-.148-.28-.148-.28-.152-.28-.15-.28-.154-.28-.154-.28-.158-.278-.156-.28-.16-.28-.16-.278-.162-.278-.164-.278-.164-.28-.168-.277-.168-.277-.168-.277-.172-.278-.172-.276-.174-.277-.176-.276-.178-.275-.178-.274-.182-.277-.182-.272-.182-.273-.186-.275-.186-.273-.188-.271-.189-.271-.191-.271-.191-.271-.195-.27-.195-.269-.197-.27-.199-.268-.199-.266-.203-.266-.203-.265-.205-.266-.207-.264-.209-.263-.211-.262-.211-.262-.213-.261-.217-.259-.215-.132-.111-.129-.109-.128-.109-.128-.111-.13-.111-.126-.109-.128-.111-.128-.113-.127-.111-.128-.113-.126-.115-.126-.111-.126-.115-.126-.115-.127-.115-.125-.115-.126-.115-.125-.117-.125-.117-.125-.117-.125-.117-.123-.119-.123-.117-.125-.119-.123-.121-.123-.119-.123-.121-.121-.119-.123-.123-.121-.121-.122-.121-.121-.123-.122-.123-.121-.125-.12-.123-.12-.125-.119-.123-.12-.127-.119-.125-.128-.1-.118-.127-.118-.127-.12-.127-.116-.129-.118-.127-.116-.131-.115-.127-.116-.131-.116-.131-.116-.131-.114-.131-.114-.133-.114-.131-.112-.133-.114-.133-.114-.135-.112-.133-.112-.137-.11-.133-.111-.137-.113-.135-.11-.137-.111-.139-.109-.135-.11-.139-.109-.139-.109-.139-.108-.141-.107-.139-.107-.139-.107-.141-.107-.143-.105-.141-.107-.143-.105-.143-.105-.145-.104-.143-.103-.143-.104-.146-.103-.145-.104-.145-.102-.146-.102-.146-.101-.146-.1-.146-.102-.148-.1-.148-.098-.148-.1-.15-.098-.148-.1-.152-.096-.15-.096-.15-.097-.152-.098-.152-.095-.152-.095-.152-.096-.156-.092-.152-.095-.154-.092-.156-.093-.154-.093-.156-.091-.158-.091-.156-.091-.158-.091-.158-.089-.158-.089-.16-.089-.16-.087-.16-.087-.16-.087-.16-.085-.162-.086-.162-.085-.162-.086-.162-.083-.164-.084-.164-.083-.166-.082-.164-.082-.166-.082-.166-.068-.143-.026-.051-.044-.092-.061-.123-.075-.154-.089-.184-.103-.213-.12-.242-.128-.273-.139-.299-.152-.328-.161-.354-.085-.188-.087-.193-.089-.201-.091-.207-.095-.213-.096-.219-.098-.225-.1-.232-.102-.238-.104-.242-.105-.25-.109-.254-.109-.262-.11-.266-.112-.273-.113-.277-.116-.283-.116-.287-.115-.295-.12-.299-.12-.303-.121-.311-.122-.313-.121-.32-.123-.324-.125-.328-.123-.334-.125-.338-.127-.342-.125-.348-.126-.352-.127-.355-.126-.361-.126-.365-.126-.369-.126-.371-.127-.377-.127-.381-.126-.385-.126-.389-.125-.393-.125-.395-.125-.4-.125-.402-.123-.406-.123-.41-.121-.414-.122-.414-.06-.211-.059-.211-.059-.209-.061-.213-.059-.213-.059-.213-.057-.215-.059-.215-.057-.213-.059-.217-.058-.219-.057-.217-.056-.217-.057-.221-.055-.219-.056-.219-.055-.223-.054-.221-.056-.223-.053-.223-.053-.223-.052-.225-.051-.225-.054-.225-.051-.227-.05-.227-.05-.227-.05-.227-.05-.23-.051-.229-.048-.229-.048-.229-.046-.23-.048-.23-.046-.232-.045-.232-.044-.23-.044-.232-.044-.234-.043-.234-.043-.232-.042-.234-.041-.234-.041-.236-.041-.236-.04-.236-.039-.236-.038-.238-.038-.236-.037-.238-.036-.236-.035-.24-.034-.238-.034-.238-.034-.24-.032-.24-.03-.238-.032-.242-.028-.24-.031-.24-.028-.242-.027-.24-.027-.242-.026-.242-.025-.244-.023-.242-.023-.242-.023-.242-.021-.244-.022-.244-.019-.244-.019-.244-.018-.242-.018-.244-.016-.246-.014-.244-.015-.244-.012-.246-.012-.244-.011-.246-.011-.246-.009-.244-.007-.246-.007-.244-.005-.246-.006-.246-.004-.246-.003-.246-.001-.246v-.492l.001-.244.003-.248.004-.246.006-.246.007-.246.007-.246.009-.246.011-.246.011-.246.012-.246.014-.246.015-.246.016-.244.018-.246.02-.246.02-.246.021-.244.023-.248.023-.242.025-.246.026-.238.079-.711.077-.699.073-.693.072-.691.069-.686.066-.682.066-.676.062-.674.061-.668.059-.664.056-.66.055-.656.052-.652.05-.646.049-.643.046-.641.045-.635.042-.631.041-.627.04-.623.036-.619.036-.615.032-.611.032-.605.029-.604.028-.6.025-.596.025-.592.021-.588.021-.584.018-.582.018-.576.014-.574.014-.57.013-.566.011-.561.009-.561.007-.555.005-.553.006-.549.002-.545.001-.543v-.537l-.001-.535-.004-.531-.006-.529-.005-.525-.007-.523-.009-.516-.01-.518-.011-.512-.014-.51-.014-.506-.015-.504-.018-.5-.018-.498-.02-.494-.02-.49-.023-.488-.023-.484-.023-.484-.025-.479-.026-.477-.028-.475-.029-.473-.029-.469-.032-.465-.032-.463-.032-.461-.034-.457-.036-.457-.036-.453-.037-.449-.038-.447-.04-.447-.039-.441-.041-.441-.041-.438-.043-.438-.042-.432-.045-.432-.044-.43-.046-.426-.046-.426-.046-.422-.048-.422-.05-.416-.048-.416-.05-.414-.052-.412-.051-.41-.052-.408-.053-.404-.052-.404-.056-.404-.053-.398-.055-.398-.056-.398-.057-.393-.057-.395-.057-.391-.057-.391-.059-.387-.057-.387-.061-.387-.059-.383-.059-.381-.061-.381-.061-.379-.061-.377-.063-.377-.061-.375-.063-.371-.061-.371-.063-.371-.064-.369-.125-.734-.126-.73-.127-.727-.128-.721-.129-.717-.128-.713-.128-.709-.128-.705-.256-1.404-.254-1.391-.126-.691-.125-.691-.125-.688-.122-.688-.123-.684-.12-.686-.119-.684-.116-.68-.057-.342-.057-.34-.057-.342-.057-.34-.056-.342-.055-.34-.053-.34-.054-.342-.053-.34-.054-.342-.051-.34-.052-.34-.05-.344-.05-.342-.048-.34-.049-.344-.048-.34-.046-.344-.046-.344-.044-.342-.044-.344-.043-.344-.043-.346-.042-.344-.04-.346-.039-.344-.039-.348-.038-.346-.038-.35-.036-.348-.034-.35-.034-.348-.032-.35-.032-.352-.031-.352-.028-.352-.026-.354-.027-.352-.027-.355-.023-.355-.023-.355-.021-.357-.021-.357-.018-.359-.018-.359-.018-.361-.014-.361-.015-.361-.012-.365-.011-.363-.009-.365-.007-.367-.007-.369-.005-.369-.003-.369-.002-.373v-.373l.002-.373.002-.375.005-.377.005-.379.007-.377.011-.381.011-.381.012-.385.015-.385.016-.387.018-.387.02-.389.021-.391.023-.393.025-.393.026-.396.031-.396.03-.398.032-.398.036-.402.036-.404.04-.405.039-.405.043-.41.044-.41.046-.412.048-.413.05-.415.053-.418.054-.421.057-.421.059-.423.031-.214.03-.212.032-.212.032-.215.032-.215.032-.215.034-.215.034-.217.036-.217.034-.217.036-.217.038-.218.036-.22.038-.219.037-.22.04-.22.039-.221.04-.221.041-.224.041-.221.041-.224.041-.225.059-.309.059-.309.06-.311.061-.312.062-.31.063-.313.064-.313.064-.313.065-.313.066-.314.066-.316.067-.314.07-.316.07-.316.069-.316.072-.317.071-.317.073-.318.075-.318.074-.318.075-.32.077-.319.077-.319.079-.32.08-.32.079-.32.082-.322.082-.32.082-.32.084-.323.083-.321.086-.322.087-.323.087-.321.088-.322.089-.323.091-.323.091-.322.091-.322.094-.325.093-.323.094-.32.097-.324.098-.323.097-.323.1-.322.1-.322.1-.325.102-.323.104-.32.104-.323.105-.323.105-.322.106-.321.107-.322.109-.323.108-.318.111-.324.112-.32.112-.321.11-.325.114-.32.116-.321.118-.319.118-.317.12-.319.12-.319.121-.319.123-.316.123-.318.123-.316.126-.316.127-.316.126-.314.128-.316.13-.314.13-.313.133-.313.133-.314.134-.313.136-.312.135-.311.139-.31.138-.311.141-.309.141-.309.141-.309.145-.307.145-.307.145-.305.147-.307.146-.303.15-.303.149-.303.151-.303.154-.301.153-.299.155-.301.155-.297.159-.297.157-.297.161-.297.162-.294.161-.292.164-.293.166-.293.166-.291.166-.289.169-.288.169-.287.172-.287.173-.286.173-.283.174-.281.177-.282.176-.282.18-.279.179-.277.182-.277.184-.275.184-.275.186-.273.185-.271.189-.271.188-.267.096-.137.096-.135.097-.135.096-.131.096-.135.099-.133.21-.285.214-.286.214-.285.217-.286.217-.281.218-.281.221-.281.223-.279.223-.277.225-.277.226-.276.229-.274.23-.273.23-.272.232-.271.233-.271.234-.27.237-.268.237-.268.239-.264.239-.266.242-.263.242-.262.245-.263.244-.258.249-.261.248-.257.248-.256.251-.256.251-.254.253-.252.253-.252.257-.25.257-.25.257-.248.261-.246.26-.246.261-.244.264-.244.265-.24.265-.241.266-.241.267-.236.27-.238.269-.236.271-.234.271-.233.274-.233.275-.23.274-.23.277-.229.278-.226.278-.228.28-.224.282-.226.282-.223.283-.222.284-.219.286-.219.285-.219.287-.217.289-.215.289-.214.291-.214.293-.211.291-.21.294-.208.294-.209.294-.207.298-.205.296-.203.299-.203.298-.201.299-.201.301-.199.302-.196.303-.196.304-.196.305-.194.305-.192.306-.19.309-.189.306-.189.311-.189.309-.185.311-.186.312-.182.312-.185.314-.18.314-.18.316-.179.315-.177.316-.176.318-.176.317-.172.319-.174.319-.17.321-.169.321-.167.321-.168.323-.166.323-.162.325-.164.325-.16.326-.161.325-.159.328-.156.328-.157.328-.155.328-.152.33-.152.33-.152.332-.146.332-.148.333-.148.332-.145.333-.145.335-.143.333-.141.336-.141.337-.141.335-.135.337-.137.337-.135.339-.133.338-.133.339-.129.34-.129.341-.129.341-.125.342-.127.341-.123.342-.121.344-.121.343-.119.344-.118.344-.117.346-.114.345-.114.348-.112.346-.111.346-.109.348-.107.347-.107.348-.105.349-.105.348-.101.349-.103.35-.1.352-.098.349-.096.352-.097.352-.093.351-.094.353-.09.351-.092.354-.086.353-.088.353-.086.353-.084.355-.082.355-.082.354-.078.355-.079.355-.076.354-.075.357-.074.355-.072.357-.071.356-.069.357-.068.357-.065.358-.063.356-.064.358-.063.357-.061.359-.059.358-.059.358-.057.359-.053.36-.055.358-.051.358-.05.36-.048.358-.049.36-.045.36-.045.36-.042.36-.041.36-.04.359-.037.36-.035.36-.035.36-.034.36-.032.362-.031.36-.027.36-.027.362-.025.36-.023.36-.023.362-.021.36-.019.362-.019.359-.018.36-.014.362-.014.36-.012.362-.01.36-.01.362-.006.36-.006.36-.004.362-.002.36-.002h.368zm-.695 6.121l-.333.002-.335.004-.333.005-.333.005-.335.01-.333.008-.336.012-.335.012-.333.014-.335.016-.336.018-.333.018-.335.02-.335.02-.335.023-.335.023-.333.026-.335.026-.335.027-.336.029-.333.031-.335.032-.335.034-.335.035-.334.037-.335.037-.333.039-.335.041-.334.044-.335.044-.333.045-.333.047-.335.048-.334.048-.333.052-.333.052-.333.054-.333.056-.332.057-.334.057-.333.06-.332.06-.332.063-.333.062-.332.064-.333.066-.332.068-.33.067-.332.071-.332.07-.33.074-.33.072-.33.076-.33.078-.331.076-.328.08-.33.08-.328.082-.328.084-.328.086-.328.086-.326.089-.328.087-.326.092-.327.09-.325.094-.326.094-.325.097-.326.097-.323.098-.325.1-.323.1-.325.104-.323.103-.321.104-.323.107-.321.107-.321.109-.321.109-.319.111-.319.111-.319.115-.319.115-.319.115-.317.119-.316.119-.317.119-.315.121-.323.123-.315.123-.314.127-.313.127-.314.126-.312.131-.312.13-.312.132-.311.132-.31.135-.311.135-.311.137-.308.139-.307.139-.307.141-.309.141-.305.143-.307.145-.303.145-.306.146-.303.148-.304.15-.301.148-.301.152-.302.151-.299.155-.298.152-.3.158-.298.156-.296.159-.296.161-.296.16-.294.162-.294.162-.293.166-.292.166-.292.166-.291.169-.291.167-.289.172-.287.172-.289.172-.286.176-.285.174-.285.178-.286.176-.282.178-.284.181-.282.181-.28.184-.28.182-.278.186-.278.184-.277.188-.276.188-.275.188-.274.19-.272.191-.273.192-.271.192-.271.195-.27.195-.268.196-.267.198-.266.199-.266.2-.266.202-.262.201-.264.203-.26.205-.26.205-.259.207-.258.207-.257.208-.257.21-.255.211-.253.213-.254.212-.251.214-.251.217-.25.215-.248.217-.248.221-.246.219-.244.219-.244.224-.243.223-.243.224-.241.225-.239.227-.237.227-.237.229-.235.229-.235.229-.234.23-.232.232-.231.232-.229.234-.23.236-.227.234-.227.238-.224.236-.223.238-.223.242-.221.24-.22.242-.219.242-.216.245-.216.244-.216.246-.212.248-.213.247-.21.25-.21.25-.207.25-.207.254-.205.25-.205.256-.202.254-.202.256-.2.257-.2.259-.196.259-.196.259-.195.26-.192.264-.086.117-.085.117-.087.119-.085.119-.083.119-.084.118-.171.243-.167.242-.167.244-.167.246-.164.246-.166.248-.162.25-.163.252-.162.252-.161.254-.159.255-.159.257-.159.259-.155.259-.155.258-.155.263-.154.265-.153.264-.151.264-.15.268-.15.268-.147.27-.148.27-.146.271-.146.271-.145.275-.144.274-.143.274-.141.276-.141.278-.139.278-.139.278-.137.281-.137.281-.136.283-.136.281-.133.285-.134.286-.132.285-.13.287-.13.287-.128.289-.129.288-.128.289-.125.291-.126.293-.123.292-.123.293-.123.292-.122.297-.121.293-.12.297-.118.296-.118.296-.117.298-.116.298-.114.3-.114.298-.112.3-.112.3-.111.301-.111.302-.109.302-.108.301-.107.303-.106.305-.105.303-.104.303-.104.305-.102.303-.102.306-.102.305-.1.306-.1.305-.098.305-.096.307-.097.307-.096.307-.094.306-.095.306-.093.31-.091.308-.091.305-.091.309-.089.307-.089.307-.087.309-.085.307-.085.307-.086.309-.083.307-.084.309-.082.305-.082.309-.08.307-.081.307-.078.307-.078.307-.077.307-.077.307-.075.306-.075.305-.075.308-.073.305-.071.305-.072.305-.071.305-.069.304-.068.306-.07.303-.065.303-.068.303-.066.302-.064.302-.064.303-.062.301-.063.301-.063.299-.061.301-.061.299-.059.298-.059.298-.058.297-.057.297-.058.297-.039.211-.04.209-.037.211-.04.209-.037.209-.036.208-.037.206-.036.208-.034.208-.036.205-.034.205-.033.205-.032.205-.034.202-.03.204-.032.203-.032.201-.031.201-.028.201-.03.201-.028.2-.029.198-.055.398-.054.396-.052.392-.048.393-.048.389-.044.387-.043.389-.042.383-.04.381-.037.381-.036.377-.034.377-.032.375-.031.373-.028.372-.027.369-.025.369-.025.366-.022.365-.019.363-.019.363-.018.361-.014.357-.015.359-.011.357-.011.354-.009.355-.007.352-.005.354-.003.35-.003.35v.696l.001.346.003.344.004.344.007.344.008.342.009.34.009.342.012.338.013.34.014.338.014.338.018.334.018.336.018.336.021.334.022.334.023.332.023.332.025.334.026.332.027.33.029.33.028.33.032.33.03.328.032.33.034.328.036.328.036.33.036.328.038.328.039.328.04.326.041.328.041.326.042.328.043.328.043.328.044.328.046.328.046.328.047.328.048.328.048.328.05.328.05.33.052.33.05.328.053.33.052.328.054.332.055.33.053.332.056.332.055.334.058.33.113.668.116.67.12.674.12.676.121.678.123.68.125.686.125.689.253 1.391.257 1.404.128.711.13.713.13.721.128.727.13.729.128.736.13.742.126.748.064.375.064.379.063.379.064.383.063.381.062.387.063.385.062.389.061.389.062.393.061.393.06.395.061.396.059.4.059.4.059.4.06.406.057.406.059.408.057.41.055.414.056.414.055.418.055.416.054.424.054.422.051.424.052.43.052.428.05.434.05.434.048.436.049.439.048.441.046.443.044.445.044.449.044.451.043.453.043.455.041.461.039.459.039.463.04.467.036.469.038.471.034.475.036.477.032.479.031.482.031.486.03.488.029.49.026.494.027.494.025.5.023.502.023.504.021.508.02.512.019.516.016.516.016.52.016.523.013.527.012.527.011.533.009.537.007.539.007.541.005.545.001.549.002.553.001.555-.001.559-.003.563-.004.566-.007.566-.008.574-.009.574-.01.58-.012.584-.015.586-.016.592-.018.592-.02.598-.021.602-.021.605-.025.607-.026.611-.029.617-.03.619-.032.623-.033.629-.036.631-.037.635-.04.639-.042.645-.043.646-.046.65-.047.656-.05.658-.051.662-.054.668-.056.672-.059.676-.059.68-.062.684-.064.688-.065.693-.07.697-.07.699-.073.707-.074.709-.079.715-.079.713-.023.215-.023.213-.02.213-.019.211-.02.213-.016.213-.019.215-.014.213-.014.215-.013.215-.012.215-.01.215-.011.215-.009.217-.007.217-.007.217-.005.217-.005.217-.003.217-.001.217-.002.219v.436l.002.219.001.219.003.221.004.217.005.219.007.221.007.219.007.221.009.221.01.219.011.221.011.221.015.219.012.221.014.221.016.221.016.221.016.221.018.221.02.219.02.221.019.221.022.223.021.219.023.221.023.221.024.221.025.221.027.219.026.221.027.221.029.219.028.221.03.219.03.221.031.219.032.221.032.219.032.217.036.221.034.219.035.217.036.219.036.219.038.217.037.217.038.217.04.217.041.217.039.217.041.215.041.217.041.215.043.217.042.213.044.215.043.213.044.215.046.213.044.213.047.211.046.213.048.213.046.211.048.209.048.211.05.211.05.209.048.207.051.209.05.209.05.207.052.205.052.207.054.205.052.205.053.207.054.203.053.201.054.203.053.203.056.203.055.201.056.199.055.199.055.199.056.199.057.197.057.195.114.395.114.389.116.385.116.385.116.379.117.379.12.373.118.371.12.367.119.363.12.359.12.357.121.352.12.35.12.346.12.342.121.336.12.334.118.328.12.326.119.32.118.314.118.313.116.307.116.303.116.297.112.293.114.289.112.283.111.277.111.273.108.268.107.264.106.258.104.25.104.248.101.24.101.236.098.229.096.225.093.217.092.213.091.207.087.199.085.193.085.188.081.182.079.174.151.334.139.303.13.277.118.25.104.223.093.191.079.164.066.133.05.102.036.072.039.08.084.17.069.145.072.145.073.143.071.143.073.143.073.145.073.141.075.143.075.141.075.141.077.141.077.141.077.139.075.139.078.139.079.139.079.137.079.139.08.137.081.137.08.137.08.135.082.135.082.137.082.135.082.133.082.135.084.133.084.133.085.133.083.133.086.131.085.131.085.131.087.131.087.131.087.129.087.129.089.131.088.129.089.127.091.127.089.129.091.127.089.125.091.127.093.127.091.125.093.125.092.125.094.125.093.123.094.123.095.123.095.123.094.123.096.121.095.121.096.123.098.121.097.119.098.121.096.119.098.119.1.121.099.117.1.117.1.119.1.117.1.117.102.117.1.115.102.117.101.115.104.115.101.115.104.115.104.113.103.113.104.115.103.111.105.113.105.113.105.111.105.111.105.111.107.111.107.109.107.111.107.109.106.109.107.107.109.109.108.109.109.107.109.107.108.107.111.107.109.107.11.105.111.105.111.105.11.105.113.105.11.104.113.105.112.102.112.105.113.102.114.104.112.102.114.104.114.1.114.102.114.102.114.1.115.102.116.1.114.1.116.1.116.1.118.098.114.096.236.197.233.193.236.193.237.191.237.189.239.188.239.188.241.186.241.186.241.182.245.182.243.182.244.178.244.178.246.178.246.174.248.174.246.172.25.172.248.17.251.168.25.168.25.166.251.164.253.162.251.162.253.162.253.158.253.158.255.156.255.156.255.154.255.152.256.152.257.15.257.148.256.148.257.146.259.146.257.145.258.143.259.143.258.141.259.139.258.137.26.139.259.135.258.135.26.133.259.133.26.131.258.129.261.129.258.127.261.127.26.125.258.123.261.123.258.121.259.121.261.119.258.119.258.115.259.117.259.113.256.113.259.113.256.111.258.109.257.109.255.107.257.107.257.105.255.105.255.104.255.102.253.102.255.1.251.1.253.098.254.098.251.096.251.096.25.094.25.092.25.092.248.092.248.088.249.09.246.086.246.088.246.086.245.084.242.084.243.082.243.082.24.08.241.08.239.078.239.078.237.076.237.076.236.074.235.074.234.072.232.07.231.072.23.07.23.068.228.068.229.066.226.066.225.064.223.064.223.064.221.063.221.061.219.063.216.059.217.059.214.059.214.057.214.057.21.057.21.053.207.055.207.053.207.051.203.053.202.049.202.051.2.049.198.047.195.047.388.092.382.088.375.086.369.082.36.078.353.076.348.074.338.068.33.068.325.063.316.063.307.057.3.057.291.053.284.049.273.049.264.045.255.041.246.041.237.035.227.035.217.033.205.029.198.027.186.023.175.023.162.021.154.018.139.016.132.014.401.041.405.041.403.037.405.037.403.035.403.035.403.031.403.031.4.029.401.029.401.027.401.023.401.023.401.023.399.021.399.02.399.018.4.018.398.016.397.014.398.012.398.012.398.01.396.008.396.008.394.004.396.006.394.002.395.002h.394l.392-.002.393-.002.393-.004.393-.006.391-.006.391-.008.389-.01.391-.01.389-.012.387-.014.389-.014.387-.018.386-.016.388-.02.385-.02.385-.021.384-.021.383-.023.384-.025.382-.025.382-.027.38-.029.38-.029.38-.031.38-.033.378-.033.376-.035.379-.037.376-.037.374-.039.375-.039.372-.041.375-.043.371-.043.372-.045.371-.045.369-.047.369-.049.369-.049.367-.051.368-.053.365-.053.366-.055.363-.055.364-.057.362-.057.361-.059.362-.061.358-.061.36-.063.358-.063.357-.066.356-.064.356-.068.354-.066.354-.068.354-.07.351-.072.352-.072.35-.072.35-.074.348-.076.348-.076.346-.078.345-.078.344-.08.345-.08.34-.082.342-.084.34-.084.339-.084.339-.086.338-.088.335-.088.333-.088.334-.092.334-.09.331-.092.33-.094.33-.094.328-.096.326-.096.326-.098.325-.098.322-.1.323-.1.321-.1.318-.104.319-.102.317-.104.316-.105.315-.105.313-.107.314-.107.311-.107.31-.109.309-.111.31-.109.306-.113.306-.113.305-.113.301-.115.302-.115.302-.115.298-.117.298-.119.296-.119.294-.119.293-.121.293-.121.29-.123.289-.123.288-.125.286-.125.285-.125.284-.127.281-.127.281-.127.281-.129.277-.131.276-.131.274-.129.273-.133.272-.133.271-.133.27-.135.267-.135.267-.137.265-.137.264-.137.262-.139.26-.137.259-.141.257-.141.256-.141.253-.141.253-.143.252-.143.247-.143.248-.145.246-.145.244-.146.243-.146.24-.146.241-.146.237-.148.237-.148.233-.15.233-.148.23-.15.229-.152.229-.15.227-.152.223-.152.224-.154.223-.154.218-.154.217-.154.217-.156.213-.156.213-.156.213-.158.206-.156.209-.16.205-.158.203-.158.202-.16.199-.16.198-.16.196-.162.193-.162.193-.16.191-.164.188-.162.187-.164.186-.164.184-.164.183-.164.178-.164.178-.166.176-.166.174-.166.172-.168.171-.166.167-.168.166-.166.164-.168.162-.168.162-.172.079-.082.079-.084.078-.084.078-.086.077-.084.077-.086.076-.084.076-.086.076-.084.074-.086.074-.084.075-.086.073-.084.073-.086.071-.086.073-.086.071-.086.071-.084.069-.086.071-.086.069-.086.07-.086.067-.086.067-.086.068-.086.067-.086.066-.086.065-.086.066-.088.066-.086.063-.084.064-.088.064-.088.062-.084.064-.086.062-.09.062-.084.061-.088.06-.086.062-.086.059-.088.062-.088.057-.086.057-.086.059-.088.058-.088.056-.086.057-.088.056-.086.055-.088.054-.086.054-.086.056-.09.053-.088.053-.086.049-.086.052-.088.052-.088.053-.088.047-.086.051-.088.048-.088.05-.088.049-.088.046-.086.046-.088.047-.088.045-.086.046-.088.044-.09.045-.086.043-.088.045-.088.043-.09.109-.229.111-.229.109-.23.107-.229.109-.23.107-.229.106-.229.105-.229.104-.229.104-.227.104-.227.102-.229.102-.227.102-.225.101-.229.1-.227.098-.225.098-.225.099-.227.097-.225.094-.225.095-.225.095-.225.093-.223.093-.225.091-.225.093-.225.09-.223.088-.223.09-.225.087-.223.087-.223.088-.223.086-.223.084-.223.086-.223.082-.221.084-.223.082-.223.082-.221.08-.223.08-.223.078-.221.078-.221.077-.223.077-.221.076-.223.076-.221.074-.223.074-.221.073-.221.073-.221.071-.223.071-.221.071-.223.069-.221.07-.221.067-.223.067-.221.066-.221.066-.223.065-.223.065-.221.064-.223.064-.221.063-.223.063-.223.061-.221.061-.223.061-.223.059-.223.06-.223.059-.223.057-.223.058-.225.055-.223.057-.223.055-.225.053-.225.054-.225.054-.223.052-.225.052-.225.051-.225.049-.227.051-.225.049-.227.047-.225.049-.227.046-.227.046-.227.047-.227.045-.229.044-.227.043-.229.044-.229.041-.229.043-.229.041-.229.039-.229.041-.232.039-.229.038-.23.039-.23.036-.232.037-.23.036-.232.036-.232.033-.232.035-.234.032-.234.034-.232.032-.234.032-.236.029-.234.031-.236.03-.236.028-.236.028-.238.028-.238.027-.236.026-.238.027-.24.024-.24.025-.24.025-.24.022-.242.023-.242.023-.24.021-.244.022-.244.021-.244.021-.244.019-.246.018-.244.021-.248.018-.246.017-.248.016-.248.017-.248.016-.25.015-.25.014-.252.015-.25.013-.252.012-.254.013-.252.011-.256.012-.254.01-.254.009-.258.009-.256.009-.258.008-.258.007-.26.008-.26.005-.26.005-.262.006-.262.005-.264.004-.262.004-.264.001-.266.002-.266.002-.268.002-.268v-.538l-.002-.27v-.27l-.004-.271-.001-.273-.004-.273-.004-.273-.003-.273-.004-.275-.006-.277-.007-.277-.005-.277-.008-.279-.006-.279-.01-.281-.008-.281-.01-.283-.009-.285-.01-.283-.013-.285-.01-.285-.011-.289-.013-.287-.014-.289-.013-.291-.015-.291-.014-.291-.015-.295-.017-.293-.016-.295-.017-.297-.018-.297-.019-.297-.018-.299-.019-.301-.019-.301-.021-.303-.02-.303-.021-.303-.021-.307-.021-.305-.046-.617-.047-.619-.049-.625-.051-.629-.055-.633-.055-.637-.059-.643-.06-.646-.062-.652-.063-.656-.066-.66-.068-.666-.069-.67-.071-.676-.072-.68-.075-.686-.079-.689-.078-.695-.082-.699-.082-.705-.086-.713-.087-.715-.087-.721-.094-.736-.022-.191-.023-.203-.02-.201-.021-.201-.019-.201-.017-.203-.016-.205-.013-.203-.013-.205-.011-.205-.009-.205-.009-.205-.007-.205-.006-.207-.004-.207-.002-.205-.001-.209v-.209l.001-.209.004-.207.004-.211.006-.205.007-.213.007-.211.009-.209.011-.209.012-.211.014-.213.012-.211.017-.213.017-.213.016-.211.018-.213.02-.217.021-.213.021-.213.023-.213.023-.217.024-.215.026-.217.027-.213.026-.217.028-.215.031-.219.029-.215.033-.219.033-.217.032-.217.036-.221.035-.215.035-.221.038-.219.039-.217.039-.221.04-.221.041-.219.041-.219.042-.223.043-.221.044-.219.045-.221.047-.225.047-.221.048-.221.046-.221.05-.223.05-.225.051-.223.051-.221.051-.223.053-.225.055-.223.053-.225.053-.223.057-.227.055-.223.058-.225.057-.225.057-.225.06-.225.059-.225.061-.225.059-.225.061-.225.063-.227.061-.227.063-.225.063-.227.064-.227.064-.227.128-.451.132-.455.135-.453.133-.453.138-.455.138-.453.141-.455.141-.453.143-.457.145-.455.146-.455.146-.455.147-.455.148-.453.151-.455.149-.455.151-.455.154-.453.151-.455.155-.453.153-.453.155-.451.155-.453.31-.902.313-.9.313-.898.312-.893.619-1.777.305-.883.306-.877.149-.438.149-.436.148-.432.148-.434.146-.432.144-.43.145-.428.143-.426.142-.424.139-.424.138-.42.137-.42.134-.416.135-.414.129-.412.129-.41.127-.408.125-.408.123-.404.119-.4.119-.4.114-.395.114-.396.055-.193.056-.195.054-.197.054-.191.054-.193.052-.195.052-.189.051-.191.051-.191.05-.188.048-.191.049-.186.047-.188.047-.189.047-.186.044-.184.045-.186.043-.184.043-.182.041-.182.042-.182.04-.182.039-.178.039-.178.038-.178.037-.178.035-.174.035-.178.035-.172.033-.174.032-.174.032-.17.031-.17.029-.17.03-.166.028-.168.027-.166.026-.166.024-.164.025-.162.023-.162.023-.164.051-.387.053-.387.05-.391.05-.391.048-.391.048-.391.047-.389.045-.393.043-.393.044-.393.041-.393.041-.395.04-.395.037-.395.037-.393.035-.396.034-.395.034-.396.032-.396.032-.396.027-.398.029-.396.029-.398.026-.395.024-.4.023-.4.023-.396.021-.4.02-.398.02-.402.016-.398.019-.4.014-.4.015-.402.013-.398.011-.402.01-.4.01-.402.006-.4.006-.404.006-.4.004-.402.002-.402.001-.402-.001-.404-.002-.4-.002-.402-.006-.404-.005-.402-.008-.404-.009-.402-.01-.402-.012-.404-.012-.402-.015-.4-.016-.406-.017-.4-.02-.404-.018-.402-.021-.402-.023-.403-.023-.403-.026-.402-.026-.404-.029-.402-.028-.401-.03-.403-.034-.401-.033-.402-.036-.401-.037-.401-.037-.403-.039-.401-.043-.401-.043-.401-.045-.399-.045-.4-.048-.402-.048-.398-.052-.4-.052-.399-.054-.399-.056-.399-.055-.399-.059-.398-.059-.397-.063-.399-.062-.397-.064-.396-.066-.398-.067-.396-.068-.396-.071-.396-.072-.394-.074-.396-.074-.395-.077-.396-.078-.393-.081-.395-.082-.393-.083-.393-.086-.391-.085-.393-.09-.391-.09-.391-.092-.393-.047-.194-.046-.194-.048-.192-.047-.194-.05-.197-.048-.193-.049-.195-.049-.191-.051-.195-.05-.192-.05-.194-.052-.194-.052-.192-.052-.193-.052-.192-.053-.194-.055-.191-.053-.191-.054-.193-.054-.192-.055-.192-.056-.191-.056-.191-.057-.193-.057-.191-.058-.189-.058-.191-.057-.193-.059-.189-.06-.189-.059-.191-.059-.189-.061-.19-.061-.19-.062-.191-.062-.189-.062-.188-.062-.189-.063-.19-.064-.188-.063-.188-.064-.188-.063-.189-.066-.188-.064-.188-.065-.189-.066-.188-.065-.188-.068-.188-.068-.188-.066-.186-.068-.188-.07-.188-.068-.186-.07-.188-.069-.186-.071-.188-.071-.184-.071-.186-.071-.186-.073-.185-.072-.187-.074-.183-.072-.185-.076-.185-.074-.185-.075-.184-.074-.184-.077-.184-.076-.184-.077-.182-.077-.184-.078-.182-.078-.183-.079-.182-.08-.185-.079-.182-.079-.18-.08-.182-.082-.182-.082-.181-.081-.18-.084-.181-.082-.182-.084-.179-.084-.18-.085-.181-.084-.178-.085-.178-.086-.182-.086-.178-.087-.179-.087-.179-.088-.176-.09-.18-.087-.178-.089-.176-.09-.177-.09-.177-.092-.176-.091-.18-.091-.174-.091-.175-.093-.177-.093-.175-.095-.175-.095-.174-.093-.176-.096-.173-.096-.177-.096-.173-.096-.173-.097-.173-.097-.173-.098-.174-.098-.172-.1-.172-.1-.171-.1-.173-.1-.172-.102-.171-.1-.171-.104-.17-.102-.171-.102-.17-.104-.169-.104-.172-.104-.167-.105-.169-.105-.17-.104-.168-.107-.168-.106-.169-.105-.166-.109-.167-.108-.168-.106-.166-.111-.168-.109-.167-.109-.164-.111-.167-.11-.166-.112-.165-.11-.164-.112-.164-.114-.164-.114-.164-.113-.164-.115-.163-.115-.164-.116-.162-.116-.162-.116-.162-.118-.162-.117-.16-.117-.162-.119-.161-.12-.161-.119-.16-.12-.16-.121-.158-.121-.16-.121-.16-.123-.158-.123-.158-.123-.158-.125-.158-.125-.158-.123-.155-.127-.157-.126-.156-.126-.158-.128-.154-.126-.156-.131-.156-.128-.154-.128-.154-.131-.154-.131-.154-.131-.154-.131-.154-.131-.151-.133-.153-.134-.152-.132-.152-.135-.152-.135-.151-.135-.149-.136-.152-.138-.15-.136-.148-.137-.152-.138-.147-.139-.149-.14-.148-.14-.15-.139-.146-.141-.147-.143-.148-.141-.148-.143-.146-.142-.146-.144-.146-.146-.146-.145-.145-.144-.146-.146-.144-.146-.145-.146-.145-.146-.143-.147-.143-.15-.145-.147-.143-.15-.142-.148-.143-.15-.142-.152-.141-.151-.141-.151-.139-.153-.142-.153-.139-.154-.14-.154-.139-.155-.139-.155-.139-.156-.137-.158-.139-.156-.136-.159-.138-.159-.135-.158-.138-.158-.134-.16-.135-.161-.137-.162-.133-.162-.135-.163-.133-.162-.135-.164-.131-.164-.133-.166-.134-.165-.13-.166-.132-.167-.13-.167-.133-.167-.129-.17-.129-.17-.131-.169-.128-.169-.128-.172-.129-.171-.127-.171-.129-.175-.126-.174-.126-.173-.127-.174-.125-.176-.125-.176-.125-.177-.125-.177-.125-.177-.123-.179-.123-.178-.123-.18-.123-.173-.132-.181-.121-.18-.121-.182-.121-.182-.119-.185-.121-.183-.12-.185-.12-.185-.117-.187-.117-.185-.12-.188-.116-.188-.117-.188-.115-.189-.117-.188-.115-.188-.116-.191-.114-.19-.114-.192-.114-.193-.113-.193-.113-.193-.113-.193-.111-.195-.111-.195-.113-.195-.111-.196-.109-.198-.109-.197-.11-.199-.108-.199-.109-.199-.107-.202-.108-.202-.106-.477-.256-.48-.252-.479-.252-.479-.252-.478-.25-.479-.249-.479-.248-.479-.246-.478-.246-.479-.244-.479-.243-.48-.24-.479-.239-.478-.239-.48-.236-.479-.236-.479-.231-.481-.233-.479-.23-.241-.113-.239-.113-.24-.113-.241-.113-.241-.112-.24-.112-.24-.112-.24-.11-.241-.11-.243-.108-.24-.111-.241-.109-.242-.107-.241-.107-.24-.107-.243-.107-.241-.107-.242-.104-.242-.105-.242-.104-.243-.105-.243-.104-.24-.102-.242-.102-.244-.104-.242-.101-.243-.1-.244-.1-.243-.101-.242-.098-.244-.098-.244-.098-.244-.097-.244-.095-.245-.096-.244-.096-.244-.092-.245-.096-.246-.092-.244-.092-.246-.09-.246-.092-.244-.089-.246-.089-.246-.09-.246-.088-.248-.085-.246-.087-.248-.086-.246-.084-.248-.084-.248-.082-.248-.084-.247-.08-.248-.082-.248-.08-.247-.078-.25-.078-.25-.077-.25-.079-.25-.074-.249-.075-.25-.075-.249-.072-.252-.074-.252-.07-.25-.072-.251-.068-.253-.07-.252-.07-.251-.064-.253-.068-.254-.066-.251-.064-.253-.064-.256-.062-.253-.063-.255-.061-.254-.062-.254-.06-.256-.058-.257-.059-.255-.057-.257-.056-.255-.054-.257-.055-.257-.053-.259-.051-.257-.052-.258-.05-.323-.061-.323-.062-.324-.057-.322-.058-.325-.053-.325-.054-.324-.052-.326-.05-.326-.05-.326-.047-.326-.047-.327-.044-.328-.041-.326-.042-.328-.04-.328-.038-.328-.037-.331-.033-.328-.035-.329-.031-.33-.03-.33-.028-.329-.029-.33-.025-.332-.023-.33-.023-.332-.021-.332-.021-.331-.018-.332-.016-.331-.018-.334-.014-.332-.012-.334-.012-.331-.01-.333-.008-.334-.007-.333-.005-.334-.004-.333-.002-.333-.002-.348-.006z"/>
  <path fill="#81A1C1" d="M462.962 395.476c-60.566 14.095-71.161-21.24-73.241-28.918-3.922-14.467-5.822-42.508-2.298-57.42 1.222-5.178 3.535-11.075 7.475-15.362 8.656-9.42 47.367-10.24 61.84-8.027 5.793.887 11.025 2.889 16.202 5.086 18.016 7.64 24.365 96.647-9.978 104.64z"/>
  <circle fill="#81A1C1" cx="-24407.273" cy="-5452.278" r="5.204" transform="translate(12228 2888.88) scale(.48568)" opacity=".3"/>
  <circle fill="#81A1C1" cx="-24852.475" cy="-5468.564" r="5.204" transform="translate(12569.7 2901.38) scale(.48568)" opacity=".3"/>
  <path fill="#EBCB8B" stroke="#4C566A" stroke-width="4.369" stroke-miterlimit="10" d="M344.323 313.34s11.48-19.686 25.213-20.256 16.954 10.878 7.405 15.232c-9.55 4.352-18.15 9.272-20.631 17.322-2.482 8.051-19.35.053-11.987-12.298z"/>
  <path fill="#EBCB8B" stroke="#4C566A" stroke-width="4.369" stroke-linecap="round" stroke-linejoin="round" stroke-miterlimit="1.5" d="M541.994 307.122s-15.898-16.328-29.363-13.56-13.82 14.654-3.502 16.57c10.318 1.914 19.854 4.607 24.208 11.82 4.353 7.212 18.787-4.625 8.657-14.83z"/>
  <path fill="#4C566A" d="M438.522 258.47c-16.148-23.28-44.447 9.161-36.758 34.35 9.946 32.587 31.933 19.134 31.933 19.134 12.13-4.914 17.667-34.976 4.825-53.484z"/>
  <path fill="#EDEDED" d="M416.716 257.134c.647 3.75.398 10.705 2.341 13.885.941 1.541 3.244 1.764 4.744 1.908 8.615.832 9.052-8.02 10.83-15.629"/>
  <path fill="#4C566A" d="M416.9 254.847l.125.014.125.02.124.027.12.035.121.041.117.047.116.053.11.061.108.066.105.07.1.078.094.084.092.088.085.092.081.098.076.102.07.105.063.109.056.113.052.115.044.119.038.119.031.123.024.123.016.098.017.1.017.102.016.107.029.205.028.209.028.213.026.215.024.217.024.219.023.223.023.225.021.225.021.227.02.229.019.23.02.23.018.234.037.471.037.473.036.479.037.479.04.479.02.24.021.238.02.238.022.238.022.236.023.236.024.232.025.234.024.23.027.23.028.227.03.227.03.223.032.221.015.109.017.109.017.107.016.105.019.107.016.105.018.104.019.104.018.104.02.102.019.1.02.1.02.102.022.098.02.096.022.094.021.098.021.092.022.092.021.092.023.09.023.088.023.088.025.086.023.082.025.084.025.082.024.08.025.076.024.078.027.076.025.072.027.072.026.07.026.07.026.066.029.066.026.063.026.059.028.061.028.061.026.055.026.053.027.053.028.051.026.049.026.043.027.047.004.006.002.002.003.006.003.006.002.002.003.006.004.004.003.006.004.004.005.006.005.008.006.004v.002l.007.008.009.008v.002l.009.008.008.006.009.008.004.006.007.004.011.012.007.004.009.008.009.008.009.008.011.008.011.006.01.008.011.008.014.01.011.008.013.008.012.008.017.01.009.006.036.02.033.018.034.018.037.018.037.02.042.018.042.018.045.02.044.018.049.018.049.018.05.018.052.016.056.018.054.016.056.016.059.016.059.016.061.016.061.014.063.014.063.014.064.014.065.014.066.012.066.012.068.012.068.012.068.01.068.01.07.012.066.008.144.02.142.018.141.016.141.016.141.014.279.027.086.008.082.008.08.006.079.006.079.004.077.004.077.004.075.002.075.002.073.002h.145l.071-.002.069-.002h.068l.068-.004.067-.002.066-.006.065-.004.064-.004.064-.006.062-.006.063-.008.06-.008.061-.006.059-.01.059-.008.059-.01.057-.01.055-.01.057-.012.055-.012.053-.012.054-.012.051-.012.052-.014.051-.014.051-.014.05-.014.048-.016.049-.016.048-.014.046-.018.048-.016.045-.016.045-.018.046-.018.044-.02.044-.018.043-.018.044-.02.042-.02.043-.021.04-.02.042-.021.041-.02.041-.021.039-.021.041-.023.039-.021.039-.023.041-.025.037-.023.039-.023.037-.025.039-.025.037-.025.035-.025.039-.027.035-.027.037-.027.037-.027.035-.027.035-.031.037-.029.037-.031.034-.029.033-.029.035-.031.035-.033.035-.033.035-.033.033-.033.033-.033.037-.037.031-.033.033-.035.035-.037.033-.037.033-.037.031-.037.033-.039.033-.039.033-.041.033-.041.031-.041.033-.041.031-.041.031-.041.033-.045.033-.047.031-.043.029-.045.033-.047.029-.045.031-.045.033-.051.029-.047.029-.047.033-.051.029-.051.031-.051.029-.049.031-.053.029-.053.029-.051.029-.055.03-.057.027-.053.029-.055.031-.059.027-.053.027-.057.029-.059.027-.057.029-.061.028-.059.026-.057.056-.123.054-.125.054-.125.052-.127.053-.129.05-.133.051-.131.051-.137.05-.139.049-.139.048-.139.048-.145.047-.145.047-.146.046-.148.045-.148.046-.15.043-.152.044-.154.042-.156.043-.156.043-.158.042-.16.041-.162.041-.162.041-.162.041-.168.04-.164.04-.168.04-.168.039-.17.037-.17.039-.17.037-.172.076-.35.076-.35.074-.354.074-.357.074-.357.149-.727.074-.363.078-.369.076-.367.079-.369.079-.369.081-.369.042-.188.042-.184.042-.186.042-.182.031-.123.039-.119.046-.119.053-.115.056-.113.065-.109.069-.105.076-.1.082-.098.085-.092.092-.088.095-.082.102-.078.104-.07.109-.066.111-.059.115-.053.117-.047.12-.041.123-.033.124-.025.125-.021.126-.014.126-.006.125.002.127.008.125.016.125.021.125.029.12.035.118.041.117.049.116.055.11.061.107.068.104.072.1.078.095.084.089.088.086.094.079.1.073.102.069.105.063.111.056.113.051.115.044.119.036.121.029.123.024.125.016.125.01.125.003.127-.005.127-.011.127-.019.123-.026.125-.04.176-.04.172-.039.174-.039.174-.078.35-.076.354-.076.357-.074.357-.074.357-.075.363-.149.727-.075.365-.076.365-.078.365-.079.367-.08.365-.041.184-.04.182-.042.184-.042.184-.042.182-.044.184-.042.182-.046.182-.044.182-.048.182-.046.182-.047.18-.048.18-.049.182-.05.18-.051.18-.053.178-.053.18-.053.178-.055.176-.057.178-.058.176-.059.176-.061.174-.062.176-.062.174-.064.172-.067.172-.068.172-.069.17-.071.172-.071.168-.073.168-.075.164-.041.088-.039.084-.039.08-.041.084-.04.082-.041.082-.044.086-.041.078-.041.082-.044.082-.043.078-.044.08-.046.082-.044.08-.045.08-.048.08-.048.078-.046.08-.048.076-.05.08-.05.078-.048.076-.052.076-.051.078-.052.076-.053.076-.053.078-.054.072-.054.074-.055.076-.058.074-.057.074-.059.074-.058.072-.059.07-.059.072-.061.072-.063.07-.061.07-.063.07-.064.068-.064.07-.066.068-.064.066-.066.066-.069.068-.066.066-.07.064-.068.064-.07.064-.074.064-.073.063-.072.063-.073.061-.074.061-.077.061-.078.059-.075.059-.079.059-.077.057-.081.057-.081.057-.079.053-.083.055-.083.053-.084.053-.083.051-.084.049-.086.051-.086.049-.087.047-.088.047-.088.045-.089.045-.09.045-.09.043-.092.041-.09.041-.094.041-.094.039-.093.037-.095.037-.094.035-.098.035-.095.035-.099.033-.097.031-.098.029-.1.031-.099.027-.102.029-.099.025-.101.025-.103.025-.104.023-.103.021-.103.021-.103.02-.105.02-.106.018-.105.018-.106.016-.107.016-.107.014-.107.012-.108.012-.108.012-.109.01-.11.008-.11.008-.11.006-.111.006-.112.004-.112.004-.113.002-.112.002h-.226l-.116-.002-.114-.004-.116-.004-.114-.004-.118-.006-.116-.008-.119-.008-.118-.01-.118-.01-.117-.01-.3-.029-.161-.018-.168-.018-.175-.02-.179-.021-.183-.023-.097-.016-.096-.014-.097-.014-.099-.016-.1-.018-.098-.016-.102-.02-.104-.018-.103-.021-.104-.021-.105-.021-.104-.023-.107-.025-.107-.027-.108-.027-.109-.029-.111-.031-.11-.033-.109-.033-.111-.037-.113-.037-.111-.041-.113-.041-.113-.045-.114-.045-.114-.049-.113-.051-.116-.055-.115-.057-.114-.061-.116-.061-.108-.063-.062-.037-.056-.033-.058-.037-.058-.035-.058-.039-.054-.037-.056-.039-.058-.039-.056-.041-.057-.041-.054-.043-.056-.043-.055-.045-.056-.047-.051-.043-.057-.049-.056-.051-.053-.047-.051-.049-.051-.051-.057-.057-.049-.051-.049-.051-.055-.061-.051-.057-.046-.055-.05-.059-.047-.059-.048-.061-.046-.061-.046-.063-.047-.066-.043-.063-.042-.064-.044-.068-.043-.066-.061-.104-.063-.109-.061-.107-.056-.107-.058-.109-.056-.109-.054-.111-.051-.111-.05-.109-.051-.113-.049-.113-.045-.113-.048-.113-.043-.113-.044-.115-.042-.115-.04-.115-.041-.117-.038-.115-.039-.117-.037-.117-.036-.117-.025-.14-.035-.121-.031-.119-.033-.119-.031-.119-.031-.121-.029-.121-.03-.121-.029-.121-.026-.121-.028-.123-.027-.123-.024-.123-.026-.121-.024-.123-.024-.125-.022-.125-.024-.123-.021-.125-.022-.125-.021-.127-.021-.123-.021-.127-.019-.127-.019-.123-.019-.129-.036-.252-.034-.252-.032-.252-.031-.256-.031-.254-.027-.254-.027-.254-.027-.254-.025-.254-.023-.252-.021-.25-.023-.252-.022-.252-.02-.248-.039-.492-.04-.488-.036-.48-.035-.469-.038-.461-.018-.225-.019-.223-.02-.219-.019-.215-.019-.213-.019-.207-.021-.203-.021-.197-.02-.193-.022-.189-.021-.182-.024-.178-.023-.174-.025-.17-.01-.074-.013-.08-.013-.08-.014-.082-.017-.123-.012-.127-.003-.127.002-.127.01-.125.016-.125.024-.125.032-.123.038-.121.044-.117.049-.117.059-.113.062-.109.069-.105.075-.102.082-.098.085-.094.089-.088.096-.084.1-.078.104-.072.107-.066.111-.061.115-.055.117-.047.118-.043.123-.033.123-.029.124-.02.127-.016.126-.008h.126l.124.008z"/>
  <ellipse transform="matrix(-.10036 -.59256 -.51134 .10535 -180.251 -257.032)" fill="#4C566A" cx="-1009.887" cy="-991.84" rx="15.515" ry="-21.108"/>
  <path fill="#4C566A" d="M427.623 240.192l.102.008.1.01.1.015.1.02.1.023.097.03.096.033.094.037.092.04.092.045.09.05.085.052.084.057.082.06.079.065.076.068.074.07.068.075.067.076.062.08.061.082.056.086.05.088.05.088.042.092.04.093.037.096.03.095.026.098.024.1.017.099.014.101.01.1.003.102.002.101-.004.187-.004.192-.006.189-.006.19-.007.189-.008.19-.01.187-.009.187-.009.187-.011.188-.012.185-.012.188-.012.183-.014.185-.014.186-.015.183-.014.184-.015.185-.015.182-.018.184-.032.363-.037.363-.036.362-.036.36-.04.358-.038.357-.04.356-.04.356-.08.707-.08.703-.039.35-.039.347-.037.348-.036.348-.035.345-.035.346-.033.346-.03.345-.013.17-.016.172-.013.172-.014.177-.01.1-.013.102-.02.097-.024.1-.027.098-.033.096-.035.096-.041.094-.044.092-.05.088-.052.087-.055.085-.06.082-.064.08-.067.076-.07.074-.072.07-.077.067-.08.062-.081.06-.085.057-.088.05-.088.05-.092.045-.093.04-.095.036-.095.033-.097.027-.1.024-.1.02-.099.013-.102.012-.1.003-.102.002-.102-.003-.1-.008-.102-.012-.1-.016-.1-.021-.098-.026-.096-.03-.098-.034-.092-.04-.092-.04-.092-.047-.088-.05-.086-.055-.082-.057-.081-.063-.079-.064-.074-.068-.072-.073-.068-.074-.066-.078-.06-.082-.06-.082-.055-.086-.05-.088-.046-.092-.043-.092-.039-.093-.033-.096-.032-.097-.025-.098-.02-.1-.017-.099-.012-.1-.009-.101-.003-.102v-.102l.007-.1.015-.182.014-.186.015-.183.015-.186.033-.367.034-.365.037-.364.036-.36.039-.362.039-.357.038-.358.04-.357.08-.707.08-.703.04-.352.038-.347.037-.35.038-.345.035-.346.036-.346.033-.344.03-.345.017-.168.014-.172.015-.172.013-.17.014-.172.013-.167.012-.173.01-.171.012-.169.01-.17.01-.17.009-.17.009-.17.008-.17.007-.17.006-.17.006-.167.004-.17.003-.17.003-.174.004-.101.01-.102.013-.1.017-.1.022-.1.028-.097.03-.098.036-.096.04-.093.041-.092.047-.09.05-.087.056-.084.06-.084.061-.08.067-.076.068-.076.074-.07.074-.07.079-.064.082-.06.083-.059.086-.052.09-.051.09-.045.092-.04.094-.04.096-.033.097-.03.099-.022.1-.022.101-.015.1-.012.101-.008.102-.002.101.002z"/>
  <ellipse transform="matrix(.56359 .17346 .17346 -.56359 -535.41 -1402.536)" fill="#81A1C1" cx="2318.753" cy="-2083.151" rx="4.44" ry="-8.561" opacity=".3"/>
  <ellipse transform="matrix(-.55658 .19477 .19477 .55658 427.711 34.862)" fill="#81A1C1" cx="-12.187" cy="258.866" rx="4.439" ry="-8.561" opacity=".3"/>
  <circle fill="#ECEFF4" stroke="#4C566A" stroke-width="5" stroke-linecap="round" stroke-linejoin="round" stroke-miterlimit="1.5" cx="213.74" cy="-718.92" r="28.153" transform="matrix(-.9142 -.1302 -.1302 .9142 489.849 889.556)"/>
  <circle fill="#4C566A" cx="1681.311" cy="421.342" r="4.159" transform="scale(2.19691 -2.19691) rotate(56.206 1410.193 -1238.853)"/>
  <circle fill="#ECEFF4" cx="4742.499" cy="-140.478" r="4.162" transform="scale(.6163 -.6163) rotate(56.206 2860.385 -4059.007)"/>
  <circle fill="#ECEFF4" stroke="#4C566A" stroke-width="5" stroke-linecap="round" stroke-linejoin="round" stroke-miterlimit="1.5" cx="-150.014" cy="-785.073" r="28.154" transform="matrix(-.9142 -.1302 -.1302 .9142 240.321 910.289)"/>
  <circle fill="#4C566A" cx="1080.544" cy="1275.775" r="4.159" transform="rotate(-126.468 767.266 1982.02) scale(2.1969)"/>
  <circle fill="#ECEFF4" cx="2600.924" cy="2906.017" r="4.162" transform="rotate(-126.468 634.725 1280.456) scale(.61629)"/>
  <path fill="#ECEFF4" d="M480.315 115.288c0-8.374 3.375-15.96 8.836-21.474h-90.169c-6.118 0-11.077 4.959-11.077 11.078v20.791c0 6.118 4.959 11.078 11.077 11.078h90.169c-5.461-5.513-8.836-13.099-8.836-21.473z"/>
  <path fill="#D8DEE9" d="M480.315 115.288c0-8.374 3.375-15.96 8.836-21.474h-12.199c-5.462 5.514-8.837 13.1-8.837 21.474s3.375 15.96 8.837 21.474h12.199c-5.461-5.514-8.836-13.1-8.836-21.474z"/>
  <path fill="#ECEFF4" d="M501.458 90.097h-96.204c-6.56 0-11.878-5.318-11.878-11.879 0-6.56 5.318-11.877 11.878-11.877h96.204s-2.555 6.398-2.555 11.877c0 5.481 2.555 11.879 2.555 11.879z"/>
  <path fill="#D8DEE9" d="M501.458 66.342h-9.006s-2.553 6.398-2.553 11.877c0 5.48 2.553 11.879 2.553 11.879h9.006s-2.555-6.398-2.555-11.879c0-5.479 2.555-11.877 2.555-11.877z"/>
  <path fill="#ECEFF4" d="M501.883 166.677H394.051c-7.234 0-13.099-5.864-13.099-13.099s5.864-13.1 13.099-13.1h107.832s-2.817 7.057-2.817 13.1c-.001 6.042 2.817 13.099 2.817 13.099z"/>
  <path fill="#D8DEE9" d="M501.883 140.478h-9.933s-2.816 7.057-2.816 13.1c0 6.042 2.816 13.099 2.816 13.099h9.933s-2.817-7.057-2.817-13.099c-.001-6.043 2.817-13.1 2.817-13.1z"/>
  <path fill="#ECEFF4" d="M486.993 55.75a9.555 9.555 0 012.906-6.875H387.912c-3.796 0-6.873 3.078-6.873 6.875s3.077 6.874 6.874 6.874h101.986a9.556 9.556 0 01-2.906-6.874z"/>
  <path fill="#D8DEE9" d="M486.993 55.75a9.555 9.555 0 012.906-6.875h-9.411a9.563 9.563 0 00-2.906 6.875 9.564 9.564 0 002.906 6.874h9.411a9.556 9.556 0 01-2.906-6.874z"/>
  <path fill="#BF616A" d="M423.213 126.193l-6.962-5.092-6.962 5.092a.985.985 0 01-1.566-.795v-18.517h17.055v18.517a.984.984 0 01-1.565.795z"/>
  <path fill="#BF616A" d="M416.251 106.882v14.22l6.962 5.092a.984.984 0 001.565-.795v-18.517h-8.527zm39.04-31.746v27.25c0 .707.876 1.037 1.343.506l3.054-3.476a.493.493 0 01.741 0l3.055 3.476c.467.531 1.342.201 1.342-.506v-27.25h-9.535z"/>
  <path fill="#BF616A" d="M460.059 75.136V99.25c.135 0 .271.055.369.167l3.055 3.476c.467.531 1.342.201 1.342-.506v-27.25h-4.766z"/>
  <path fill="#434C5E" d="M504.175 164.817h-.994c-.758-2.181-2.257-7.03-2.257-11.239s1.499-9.059 2.257-11.241h.994a1.858 1.858 0 000-3.717h-14.027a1.858 1.858 0 100-3.716h-.2a28.719 28.719 0 01-4.61-6.513 1.858 1.858 0 10-3.303 1.704 32.49 32.49 0 003.047 4.809h-86.099c-5.083 0-9.218-4.135-9.218-9.219v-20.791c0-5.084 4.135-9.219 9.218-9.219h54.451v6.713c0 1.104.666 2.067 1.699 2.457.721.311 2.039.195 2.898-.725l2.029-2.309 2.028 2.309a2.603 2.603 0 002.896.725 2.606 2.606 0 001.701-2.457v-6.713h18.387c-4.29 5.611-6.616 12.438-6.616 19.613 0 1.904.167 3.813.495 5.673a1.861 1.861 0 002.155 1.508 1.862 1.862 0 001.506-2.155 28.954 28.954 0 01-.438-5.025c0-7.346 2.753-14.281 7.768-19.613h.206a1.86 1.86 0 000-3.717h13.391a1.86 1.86 0 001.859-1.858 1.86 1.86 0 00-1.859-1.859h-.778c-.694-2.018-1.997-6.299-1.997-10.02 0-3.719 1.303-8 1.997-10.018h.778a1.86 1.86 0 000-3.718H489.9a1.86 1.86 0 001.295-3.191c-1.51-1.469-2.344-3.438-2.344-5.541s.834-4.072 2.344-5.542c1.078-.989.486-3.227-1.295-3.19h-83.862a1.858 1.858 0 100 3.716h80.248c-.753 1.541-1.151 3.246-1.151 5.016s.396 3.475 1.15 5.016h-98.372c-2.765 0-5.015-2.25-5.015-5.016s2.25-5.016 5.015-5.016h8.676a1.859 1.859 0 100-3.716h-8.676c-4.815 0-8.732 3.917-8.732 8.732 0 4.814 3.917 8.732 8.732 8.732h17.341c-7.575 0-13.737 6.162-13.737 13.736 0 7.575 6.162 13.737 13.737 13.737h-6.272c-7.133 0-12.936 5.804-12.936 12.937v20.791c0 7.133 5.802 12.936 12.936 12.936h-4.931c-8.248 0-14.958 6.711-14.958 14.959 0 8.247 6.711 14.959 14.958 14.959h78.206a1.86 1.86 0 000-3.718h-78.206c-6.198 0-11.24-5.043-11.24-11.24 0-6.199 5.042-11.241 11.24-11.241h105.208c-.869 2.708-2.053 7.146-2.053 11.241 0 4.094 1.184 8.532 2.053 11.24h-17.476a1.858 1.858 0 000 3.718h22.392a1.862 1.862 0 000-3.724zm-42.35-66.628a2.354 2.354 0 00-3.534 0l-1.142 1.299V76.996h5.817v22.492l-1.141-1.299zm-66.591-19.97c0-5.523 4.495-10.018 10.02-10.018h93.589c-.783 2.482-1.799 6.398-1.799 10.018 0 3.621 1.016 7.537 1.799 10.02h-32.159V76.996h16.847a1.858 1.858 0 000-3.717h-30.736a1.858 1.858 0 000 3.717h.639v11.242h-48.179c-5.526 0-10.021-4.494-10.021-10.019z"/>
  <path fill="#434C5E" d="M433.776 116.271h40.855a1.858 1.858 0 100-3.716h-40.855a1.858 1.858 0 100 3.716zm19.018 37.928a1.86 1.86 0 000 3.718h8.35a1.86 1.86 0 000-3.718h-8.35zm-39.722 0a1.859 1.859 0 000 3.718h31.583a1.86 1.86 0 000-3.718h-31.583zm27.194-77.203h4.776a1.858 1.858 0 100-3.717h-4.776a1.858 1.858 0 100 3.717zm-32.845 50.938a2.827 2.827 0 002.965-.241l5.865-4.289 5.864 4.289c1.433 1.231 4.545.193 4.522-2.295V108.74h5.465a1.858 1.858 0 100-3.716h-30.736a1.858 1.858 0 000 3.716h4.499v16.658c0 1.076.596 2.049 1.556 2.536zm15.499-4.258l-5.573-4.074a1.85 1.85 0 00-2.194 0l-5.572 4.074V108.74h13.337l.002 14.936z"/>
  <path fill="none" d="M369.257 489.001h149.488v64.667H369.257z"/>
  <path fill="#88C0D0" d="M402.257 503.784c.484.484.726 1.122.726 1.914v27.984c0 4.795-1.232 8.415-3.696 10.856-2.464 2.442-6.116 3.663-10.956 3.663-4.709 0-8.625-.924-11.748-2.771-1.584-.881-2.376-1.893-2.376-3.036 0-.617.165-1.122.495-1.519.33-.396.759-.594 1.287-.594.439 0 1.231.308 2.376.924a30.51 30.51 0 004.554 1.914c1.495.484 3.277.727 5.346.727 3.124 0 5.478-.825 7.062-2.476 1.584-1.649 2.376-4.059 2.376-7.227v-5.676c-.924 2.068-2.343 3.652-4.257 4.752s-4.169 1.649-6.765 1.649c-2.816 0-5.313-.66-7.491-1.979-2.178-1.32-3.873-3.189-5.082-5.61-1.211-2.419-1.815-5.214-1.815-8.382s.604-5.962 1.815-8.382c1.209-2.42 2.904-4.29 5.082-5.61 2.178-1.32 4.674-1.979 7.491-1.979 2.551 0 4.774.55 6.666 1.649 1.892 1.101 3.322 2.663 4.29 4.687v-3.564c0-.792.231-1.43.693-1.914.462-.483 1.11-.726 1.947-.726.836 0 1.495.243 1.98.726zm-7.26 23.595c1.759-2.046 2.64-4.872 2.64-8.48 0-3.564-.869-6.369-2.607-8.415-1.739-2.046-4.169-3.069-7.293-3.069-3.125 0-5.577 1.023-7.359 3.069-1.782 2.046-2.673 4.851-2.673 8.415 0 3.608.891 6.435 2.673 8.48 1.782 2.047 4.234 3.069 7.359 3.069 3.079 0 5.5-1.022 7.26-3.069zm23.199 6.897c-2.31-1.363-4.092-3.311-5.346-5.841s-1.881-5.467-1.881-8.812c0-3.343.627-6.28 1.881-8.811 1.254-2.529 3.036-4.477 5.346-5.841 2.31-1.363 4.983-2.046 8.019-2.046 3.036 0 5.719.683 8.052 2.046 2.332 1.364 4.125 3.312 5.379 5.841 1.254 2.53 1.881 5.468 1.881 8.811 0 3.345-.627 6.281-1.881 8.812s-3.047 4.478-5.379 5.841c-2.333 1.364-5.016 2.046-8.052 2.046-3.036 0-5.709-.682-8.019-2.046zm15.312-5.511c1.693-2.09 2.541-5.137 2.541-9.142 0-3.915-.858-6.94-2.574-9.074s-4.136-3.201-7.26-3.201c-3.125 0-5.544 1.067-7.26 3.201s-2.574 5.159-2.574 9.074c0 3.96.846 6.996 2.541 9.108 1.693 2.112 4.125 3.168 7.293 3.168 3.168.001 5.599-1.044 7.293-3.134z"/>
  <path fill="#4C566A" d="M450.271 535.497c-.507-.462-.759-1.11-.759-1.946v-41.91c0-.836.252-1.485.759-1.947.505-.462 1.155-.693 1.946-.693.748 0 1.375.231 1.882.693.505.462.759 1.111.759 1.947v41.91c0 .836-.254 1.484-.759 1.946-.507.462-1.134.693-1.882.693-.79 0-1.441-.231-1.946-.693zm14.685-40.293c-.66-.615-.99-1.429-.99-2.441 0-.968.33-1.76.99-2.376s1.518-.925 2.574-.925c1.056 0 1.914.309 2.574.925s.99 1.408.99 2.376c0 1.013-.33 1.826-.99 2.441-.66.617-1.519.924-2.574.924-1.057 0-1.914-.307-2.574-.924zm.627 40.293c-.506-.462-.759-1.11-.759-1.946v-27.853c0-.835.253-1.485.759-1.947s1.154-.692 1.947-.692c.792 0 1.43.23 1.914.692.483.462.726 1.112.726 1.947v27.853c0 .88-.242 1.54-.726 1.979-.484.439-1.122.66-1.914.66-.793 0-1.441-.231-1.947-.693zm38.18-30.525c2.155 1.364 3.827 3.3 5.017 5.808 1.188 2.508 1.781 5.412 1.781 8.712 0 3.345-.594 6.281-1.781 8.812-1.189 2.53-2.861 4.499-5.017 5.906-2.156 1.409-4.643 2.112-7.458 2.112-2.508 0-4.697-.55-6.566-1.65-1.871-1.099-3.291-2.661-4.258-4.686v3.564c0 .792-.23 1.43-.693 1.913-.461.484-1.111.727-1.947.727s-1.496-.242-1.979-.727c-.484-.483-.726-1.121-.726-1.913v-41.977c0-.747.241-1.363.726-1.848.483-.483 1.144-.727 1.979-.727s1.486.231 1.947.693c.463.462.693 1.089.693 1.881v17.688c.967-2.023 2.387-3.586 4.258-4.687 1.869-1.1 4.059-1.649 6.566-1.649 2.816.003 5.302.685 7.458 2.048zm-1.253 23.662c1.716-2.179 2.573-5.225 2.573-9.142 0-3.828-.857-6.798-2.573-8.91-1.716-2.111-4.137-3.168-7.261-3.168s-5.533 1.057-7.227 3.168c-1.694 2.112-2.541 5.127-2.541 9.042 0 3.917.847 6.941 2.541 9.075 1.693 2.135 4.103 3.201 7.227 3.201s5.545-1.089 7.261-3.266z"/>
</svg>
