<svg viewBox="0 0 512 512" xmlns="http://www.w3.org/2000/svg">
  <path d="m408.269 286.299c0-33.776 13.61-64.371 35.641-86.609h-363.687c-24.676 0-44.68 20.004-44.68 44.68v83.858c0 24.676 20.004 44.68 44.68 44.68h363.687c-22.031-22.238-35.641-52.833-35.641-86.609z" fill="#e5e9f0"/>
  <path d="m408.269 286.299c0-33.776 13.61-64.371 35.641-86.609h-49.204c-22.031 22.238-35.641 52.833-35.641 86.609s13.61 64.37 35.641 86.609h49.204c-22.031-22.238-35.641-52.833-35.641-86.609z" fill="#d8dee9"/>
  <path d="m493.548 184.696h-388.03c-26.459 0-47.909-21.45-47.909-47.909s21.45-47.909 47.909-47.909h388.031s-10.303 25.805-10.303 47.909 10.302 47.909 10.302 47.909z" fill="#e5e9f0"/>
  <path d="m493.548 88.878h-36.321s-10.303 25.805-10.303 47.909 10.303 47.909 10.303 47.909h36.321s-10.303-25.805-10.303-47.909 10.303-47.909 10.303-47.909z" fill="#d8dee9"/>
  <path d="m495.256 493.572h-434.924c-29.18 0-52.835-23.655-52.835-52.835s23.655-52.835 52.835-52.835h434.924s-11.362 28.459-11.362 52.835 11.362 52.835 11.362 52.835z" fill="#e5e9f0"/>
  <path d="m495.256 387.902h-40.055s-11.362 28.459-11.362 52.835 11.362 52.835 11.362 52.835h40.055s-11.362-28.459-11.362-52.835 11.362-52.835 11.362-52.835z" fill="#d8dee9"/>
  <path d="m435.202 46.157c0-10.877 4.496-20.698 11.723-27.726h-411.349c-15.313-.001-27.726 12.413-27.726 27.726s12.414 27.727 27.727 27.727h411.348c-7.227-7.029-11.723-16.85-11.723-27.727z" fill="#e5e9f0"/>
  <path d="m435.202 46.157c0-10.877 4.496-20.698 11.723-27.726h-37.955c-7.227 7.028-11.723 16.85-11.723 27.726 0 10.877 4.496 20.699 11.723 27.727h37.955c-7.227-7.029-11.723-16.85-11.723-27.727z" fill="#d8dee9"/>
  <g fill="#88c0d0">
    <path d="m177.956 330.284-28.081-20.537-28.081 20.537c-2.623 1.919-6.315.045-6.315-3.205v-74.685h68.791v74.685c.001 3.25-3.69 5.124-6.314 3.205z"/>
    <path d="m149.875 252.394v57.353l28.081 20.537c2.623 1.919 6.315.045 6.315-3.205v-74.685z"/>
    <path d="m307.338 124.354v109.909c0 2.852 3.533 4.184 5.416 2.041l12.32-14.019c.792-.901 2.196-.901 2.989 0l12.32 14.019c1.883 2.143 5.416.811 5.416-2.041v-109.909z"/>
    <path d="m326.568 124.354v97.255c.549 0 1.098.225 1.494.676l12.32 14.019c1.883 2.143 5.416.811 5.416-2.041v-109.909z"/>
  </g>
  <g fill="#4c566a">
    <path d="m504.503 486.074h-4.007c-3.057-8.801-9.104-28.36-9.104-45.337s6.048-36.537 9.104-45.337h4.007c4.141 0 7.497-3.357 7.497-7.497s-3.356-7.497-7.497-7.497h-56.573c4.141 0 7.497-3.357 7.497-7.497s-3.356-7.497-7.497-7.497h-.812c-7.396-7.868-13.65-16.683-18.587-26.265-1.897-3.68-6.419-5.126-10.099-3.23-3.68 1.897-5.127 6.418-3.23 10.099 3.519 6.829 7.642 13.305 12.29 19.396h-347.269c-20.503 0-37.183-16.68-37.183-37.183v-83.859c0-20.503 16.68-37.183 37.183-37.183h219.618v27.076c0 4.451 2.691 8.34 6.856 9.909 2.908 1.254 8.225.794 11.688-2.919l8.183-9.311 8.182 9.31c2.938 3.344 7.529 4.49 11.689 2.92 4.164-1.569 6.856-5.459 6.856-9.909v-27.076h74.164c-17.305 22.633-26.686 50.169-26.686 79.111 0 7.679.673 15.377 1.999 22.879.643 3.636 3.806 6.193 7.374 6.193.433 0 .873-.038 1.315-.116 4.077-.721 6.797-4.611 6.077-8.688-1.175-6.643-1.771-13.461-1.771-20.268 0-29.631 11.103-57.601 31.329-79.111h.834c4.141 0 7.497-3.357 7.497-7.497 0-4.141-3.356-7.497-7.497-7.497h54.004c4.141 0 7.497-3.357 7.497-7.497 0-4.141-3.356-7.497-7.497-7.497h-3.135c-2.802-8.142-8.056-25.405-8.056-40.412 0-15.006 5.254-32.27 8.056-40.411h3.135c4.141 0 7.497-3.357 7.497-7.497s-3.356-7.497-7.497-7.497h-8.512c-.01 0-.02 0-.03 0h-46.467c3.052 0 5.799-1.849 6.947-4.677 1.148-2.827.468-6.068-1.72-8.195-6.095-5.928-9.453-13.867-9.453-22.352s3.357-16.424 9.453-22.352c4.349-3.991 1.958-13.013-5.228-12.872h-338.245c-4.141 0-7.497 3.357-7.497 7.497s3.357 7.497 7.497 7.497h323.67c-3.038 6.217-4.645 13.091-4.645 20.229s1.602 14.013 4.64 20.229h-396.768c-11.155 0-20.229-9.075-20.229-20.229s9.075-20.229 20.229-20.229h34.992c4.141 0 7.497-3.357 7.497-7.497s-3.357-7.497-7.497-7.497h-34.992c-19.423 0-35.224 15.801-35.224 35.224s15.801 35.224 35.224 35.224h69.941c-30.551 0-55.406 24.855-55.406 55.406s24.855 55.406 55.406 55.406h-25.294c-28.771 0-52.177 23.406-52.177 52.177v83.857c0 28.771 23.406 52.177 52.177 52.177h-19.891c-33.267 0-60.332 27.065-60.332 60.332s27.065 60.332 60.332 60.332h315.437c4.141 0 7.497-3.357 7.497-7.497s-3.356-7.497-7.497-7.497h-315.437c-24.999 0-45.337-20.338-45.337-45.337s20.338-45.337 45.337-45.337h424.342c-3.504 10.921-8.277 28.825-8.277 45.337s4.774 34.417 8.277 45.337h-70.482c-4.141 0-7.497 3.357-7.497 7.497s3.356 7.497 7.497 7.497h90.311c4.141 0 7.497-3.357 7.497-7.497s-3.356-7.498-7.497-7.498zm-170.81-268.739c-1.801-2.049-4.398-3.223-7.125-3.223s-5.324 1.174-7.126 3.224l-4.606 5.241v-90.726h23.464v90.726zm-268.587-80.548c0-22.283 18.129-40.411 40.411-40.411h377.48c-3.159 10.017-7.25 25.808-7.25 40.411 0 14.604 4.091 30.395 7.25 40.412h-129.703v-45.347h67.943c4.141 0 7.497-3.357 7.497-7.497s-3.356-7.497-7.497-7.497h-123.971c-4.141 0-7.497 3.357-7.497 7.497s3.356 7.497 7.497 7.497h2.575v45.347h-194.323c-22.283 0-40.412-18.129-40.412-40.412z"/>
    <path d="m220.561 290.267h164.793c4.141 0 7.497-3.357 7.497-7.497 0-4.141-3.356-7.497-7.497-7.497h-164.793c-4.141 0-7.497 3.357-7.497 7.497s3.356 7.497 7.497 7.497z"/>
    <path d="m297.266 443.246c-4.141 0-7.497 3.357-7.497 7.497s3.356 7.497 7.497 7.497h33.682c4.141 0 7.497-3.357 7.497-7.497s-3.356-7.497-7.497-7.497z"/>
    <path d="m137.052 443.246c-4.141 0-7.497 3.357-7.497 7.497s3.357 7.497 7.497 7.497h127.383c4.141 0 7.497-3.357 7.497-7.497s-3.356-7.497-7.497-7.497z"/>
    <path d="m246.735 131.851h19.267c4.141 0 7.497-3.357 7.497-7.497s-3.356-7.497-7.497-7.497h-19.267c-4.141 0-7.497 3.357-7.497 7.497s3.356 7.497 7.497 7.497z"/>
    <path d="m114.259 337.306c3.873 1.966 8.455 1.594 11.96-.969l23.655-17.3 23.655 17.3c5.775 4.964 18.33.775 18.237-9.257v-67.188h22.045c4.141 0 7.497-3.357 7.497-7.497s-3.357-7.497-7.497-7.497h-123.969c-4.141 0-7.497 3.357-7.497 7.497s3.357 7.497 7.497 7.497h18.14v67.188c0 4.341 2.406 8.26 6.277 10.226zm62.515-17.175-22.473-16.435c-1.318-.964-2.872-1.446-4.426-1.446s-3.108.482-4.426 1.446l-22.473 16.435v-60.24h53.797v60.24z"/>
  </g>
</svg>
